<mxfile host="app.diagrams.net" agent="Mozilla/5.0 (Windows NT 10.0; Win64; x64) AppleWebKit/537.36 (KHTML, like Gecko) Chrome/128.0.0.0 Safari/537.36" version="24.7.10" pages="2">
  <diagram name="Page-1" id="P8c8F_9yt1NCIECUUys4">
    <mxGraphModel dx="2863" dy="2491" grid="1" gridSize="10" guides="0" tooltips="1" connect="1" arrows="1" fold="1" page="1" pageScale="1" pageWidth="827" pageHeight="1169" math="0" shadow="0">
      <root>
        <mxCell id="0" />
        <mxCell id="1" parent="0" />
        <mxCell id="620f7zFxNhLUslhdvnTw-9" value="&lt;b&gt;Avatar&lt;/b&gt;" style="swimlane;fontStyle=0;align=center;verticalAlign=top;childLayout=stackLayout;horizontal=1;startSize=55;horizontalStack=0;resizeParent=1;resizeParentMax=0;resizeLast=0;collapsible=0;marginBottom=0;html=1;whiteSpace=wrap;" parent="1" vertex="1">
          <mxGeometry x="200" y="220" width="140" height="403" as="geometry" />
        </mxCell>
        <mxCell id="620f7zFxNhLUslhdvnTw-10" value="attributes" style="text;html=1;strokeColor=none;fillColor=none;align=center;verticalAlign=middle;spacingLeft=4;spacingRight=4;overflow=hidden;rotatable=0;points=[[0,0.5],[1,0.5]];portConstraint=eastwest;whiteSpace=wrap;" parent="620f7zFxNhLUslhdvnTw-9" vertex="1">
          <mxGeometry y="55" width="140" height="20" as="geometry" />
        </mxCell>
        <mxCell id="620f7zFxNhLUslhdvnTw-11" value="name: string" style="text;html=1;strokeColor=none;fillColor=none;align=left;verticalAlign=middle;spacingLeft=4;spacingRight=4;overflow=hidden;rotatable=0;points=[[0,0.5],[1,0.5]];portConstraint=eastwest;whiteSpace=wrap;" parent="620f7zFxNhLUslhdvnTw-9" vertex="1">
          <mxGeometry y="75" width="140" height="20" as="geometry" />
        </mxCell>
        <mxCell id="620f7zFxNhLUslhdvnTw-12" value="&lt;font color=&quot;#000000&quot;&gt;__engine: pyttsx4&lt;/font&gt;" style="text;html=1;strokeColor=none;fillColor=none;align=left;verticalAlign=middle;spacingLeft=4;spacingRight=4;overflow=hidden;rotatable=0;points=[[0,0.5],[1,0.5]];portConstraint=eastwest;fontColor=#808080;whiteSpace=wrap;" parent="620f7zFxNhLUslhdvnTw-9" vertex="1">
          <mxGeometry y="95" width="140" height="20" as="geometry" />
        </mxCell>
        <mxCell id="620f7zFxNhLUslhdvnTw-13" value="__voices: list" style="text;html=1;strokeColor=none;fillColor=none;align=left;verticalAlign=middle;spacingLeft=4;spacingRight=4;overflow=hidden;rotatable=0;points=[[0,0.5],[1,0.5]];portConstraint=eastwest;whiteSpace=wrap;" parent="620f7zFxNhLUslhdvnTw-9" vertex="1">
          <mxGeometry y="115" width="140" height="20" as="geometry" />
        </mxCell>
        <mxCell id="620f7zFxNhLUslhdvnTw-20" value="&lt;font color=&quot;#000000&quot;&gt;__vix: int&lt;/font&gt;" style="text;html=1;strokeColor=none;fillColor=none;align=left;verticalAlign=middle;spacingLeft=4;spacingRight=4;overflow=hidden;rotatable=0;points=[[0,0.5],[1,0.5]];portConstraint=eastwest;fontColor=#808080;whiteSpace=wrap;" parent="620f7zFxNhLUslhdvnTw-9" vertex="1">
          <mxGeometry y="135" width="140" height="20" as="geometry" />
        </mxCell>
        <mxCell id="620f7zFxNhLUslhdvnTw-21" value="__voice: string" style="text;html=1;strokeColor=none;fillColor=none;align=left;verticalAlign=middle;spacingLeft=4;spacingRight=4;overflow=hidden;rotatable=0;points=[[0,0.5],[1,0.5]];portConstraint=eastwest;whiteSpace=wrap;" parent="620f7zFxNhLUslhdvnTw-9" vertex="1">
          <mxGeometry y="155" width="140" height="20" as="geometry" />
        </mxCell>
        <mxCell id="620f7zFxNhLUslhdvnTw-23" value="sample_rate: int" style="text;html=1;strokeColor=none;fillColor=none;align=left;verticalAlign=middle;spacingLeft=4;spacingRight=4;overflow=hidden;rotatable=0;points=[[0,0.5],[1,0.5]];portConstraint=eastwest;whiteSpace=wrap;" parent="620f7zFxNhLUslhdvnTw-9" vertex="1">
          <mxGeometry y="175" width="140" height="20" as="geometry" />
        </mxCell>
        <mxCell id="620f7zFxNhLUslhdvnTw-16" value="chunk_size: int" style="text;html=1;strokeColor=none;fillColor=none;align=left;verticalAlign=middle;spacingLeft=4;spacingRight=4;overflow=hidden;rotatable=0;points=[[0,0.5],[1,0.5]];portConstraint=eastwest;whiteSpace=wrap;" parent="620f7zFxNhLUslhdvnTw-9" vertex="1">
          <mxGeometry y="195" width="140" height="20" as="geometry" />
        </mxCell>
        <mxCell id="620f7zFxNhLUslhdvnTw-22" value="r: Recognizer" style="text;html=1;strokeColor=none;fillColor=none;align=left;verticalAlign=middle;spacingLeft=4;spacingRight=4;overflow=hidden;rotatable=0;points=[[0,0.5],[1,0.5]];portConstraint=eastwest;whiteSpace=wrap;" parent="620f7zFxNhLUslhdvnTw-9" vertex="1">
          <mxGeometry y="215" width="140" height="20" as="geometry" />
        </mxCell>
        <mxCell id="620f7zFxNhLUslhdvnTw-24" value="useSR: boolean" style="text;html=1;strokeColor=none;fillColor=none;align=left;verticalAlign=middle;spacingLeft=4;spacingRight=4;overflow=hidden;rotatable=0;points=[[0,0.5],[1,0.5]];portConstraint=eastwest;whiteSpace=wrap;" parent="620f7zFxNhLUslhdvnTw-9" vertex="1">
          <mxGeometry y="235" width="140" height="20" as="geometry" />
        </mxCell>
        <mxCell id="620f7zFxNhLUslhdvnTw-14" value="" style="line;strokeWidth=1;fillColor=none;align=left;verticalAlign=middle;spacingTop=-1;spacingLeft=3;spacingRight=3;rotatable=0;labelPosition=right;points=[];portConstraint=eastwest;" parent="620f7zFxNhLUslhdvnTw-9" vertex="1">
          <mxGeometry y="255" width="140" height="8" as="geometry" />
        </mxCell>
        <mxCell id="620f7zFxNhLUslhdvnTw-15" value="operations" style="text;html=1;strokeColor=none;fillColor=none;align=center;verticalAlign=middle;spacingLeft=4;spacingRight=4;overflow=hidden;rotatable=0;points=[[0,0.5],[1,0.5]];portConstraint=eastwest;whiteSpace=wrap;" parent="620f7zFxNhLUslhdvnTw-9" vertex="1">
          <mxGeometry y="263" width="140" height="20" as="geometry" />
        </mxCell>
        <mxCell id="620f7zFxNhLUslhdvnTw-25" value="__init__(name)" style="text;html=1;strokeColor=none;fillColor=none;align=left;verticalAlign=middle;spacingLeft=4;spacingRight=4;overflow=hidden;rotatable=0;points=[[0,0.5],[1,0.5]];portConstraint=eastwest;whiteSpace=wrap;" parent="620f7zFxNhLUslhdvnTw-9" vertex="1">
          <mxGeometry y="283" width="140" height="20" as="geometry" />
        </mxCell>
        <mxCell id="620f7zFxNhLUslhdvnTw-26" value="initSR()" style="text;html=1;strokeColor=none;fillColor=none;align=left;verticalAlign=middle;spacingLeft=4;spacingRight=4;overflow=hidden;rotatable=0;points=[[0,0.5],[1,0.5]];portConstraint=eastwest;whiteSpace=wrap;" parent="620f7zFxNhLUslhdvnTw-9" vertex="1">
          <mxGeometry y="303" width="140" height="20" as="geometry" />
        </mxCell>
        <mxCell id="620f7zFxNhLUslhdvnTw-27" value="initVoice()" style="text;html=1;strokeColor=none;fillColor=none;align=left;verticalAlign=middle;spacingLeft=4;spacingRight=4;overflow=hidden;rotatable=0;points=[[0,0.5],[1,0.5]];portConstraint=eastwest;whiteSpace=wrap;" parent="620f7zFxNhLUslhdvnTw-9" vertex="1">
          <mxGeometry y="323" width="140" height="20" as="geometry" />
        </mxCell>
        <mxCell id="620f7zFxNhLUslhdvnTw-28" value="say(words)" style="text;html=1;strokeColor=none;fillColor=none;align=left;verticalAlign=middle;spacingLeft=4;spacingRight=4;overflow=hidden;rotatable=0;points=[[0,0.5],[1,0.5]];portConstraint=eastwest;whiteSpace=wrap;" parent="620f7zFxNhLUslhdvnTw-9" vertex="1">
          <mxGeometry y="343" width="140" height="20" as="geometry" />
        </mxCell>
        <mxCell id="620f7zFxNhLUslhdvnTw-29" value="listen(prompt, useSR)" style="text;html=1;strokeColor=none;fillColor=none;align=left;verticalAlign=middle;spacingLeft=4;spacingRight=4;overflow=hidden;rotatable=0;points=[[0,0.5],[1,0.5]];portConstraint=eastwest;whiteSpace=wrap;" parent="620f7zFxNhLUslhdvnTw-9" vertex="1">
          <mxGeometry y="363" width="140" height="20" as="geometry" />
        </mxCell>
        <mxCell id="620f7zFxNhLUslhdvnTw-30" value="introduce()" style="text;html=1;strokeColor=none;fillColor=none;align=left;verticalAlign=middle;spacingLeft=4;spacingRight=4;overflow=hidden;rotatable=0;points=[[0,0.5],[1,0.5]];portConstraint=eastwest;whiteSpace=wrap;" parent="620f7zFxNhLUslhdvnTw-9" vertex="1">
          <mxGeometry y="383" width="140" height="20" as="geometry" />
        </mxCell>
        <mxCell id="620f7zFxNhLUslhdvnTw-32" value="&lt;b&gt;VietnamBot&lt;/b&gt;" style="swimlane;fontStyle=0;align=center;verticalAlign=top;childLayout=stackLayout;horizontal=1;startSize=55;horizontalStack=0;resizeParent=1;resizeParentMax=0;resizeLast=0;collapsible=0;marginBottom=0;html=1;whiteSpace=wrap;" parent="1" vertex="1">
          <mxGeometry x="650" y="40" width="200" height="483" as="geometry" />
        </mxCell>
        <mxCell id="620f7zFxNhLUslhdvnTw-33" value="attributes" style="text;html=1;strokeColor=none;fillColor=none;align=center;verticalAlign=middle;spacingLeft=4;spacingRight=4;overflow=hidden;rotatable=0;points=[[0,0.5],[1,0.5]];portConstraint=eastwest;whiteSpace=wrap;" parent="620f7zFxNhLUslhdvnTw-32" vertex="1">
          <mxGeometry y="55" width="200" height="20" as="geometry" />
        </mxCell>
        <mxCell id="620f7zFxNhLUslhdvnTw-34" value="avatar: Avatar" style="text;html=1;strokeColor=none;fillColor=none;align=left;verticalAlign=middle;spacingLeft=4;spacingRight=4;overflow=hidden;rotatable=0;points=[[0,0.5],[1,0.5]];portConstraint=eastwest;whiteSpace=wrap;" parent="620f7zFxNhLUslhdvnTw-32" vertex="1">
          <mxGeometry y="75" width="200" height="20" as="geometry" />
        </mxCell>
        <mxCell id="620f7zFxNhLUslhdvnTw-40" value="customer: Customer" style="text;html=1;strokeColor=none;fillColor=none;align=left;verticalAlign=middle;spacingLeft=4;spacingRight=4;overflow=hidden;rotatable=0;points=[[0,0.5],[1,0.5]];portConstraint=eastwest;whiteSpace=wrap;" parent="620f7zFxNhLUslhdvnTw-32" vertex="1">
          <mxGeometry y="95" width="200" height="20" as="geometry" />
        </mxCell>
        <mxCell id="620f7zFxNhLUslhdvnTw-41" value="cafe: SPXCafe" style="text;html=1;strokeColor=none;fillColor=none;align=left;verticalAlign=middle;spacingLeft=4;spacingRight=4;overflow=hidden;rotatable=0;points=[[0,0.5],[1,0.5]];portConstraint=eastwest;whiteSpace=wrap;" parent="620f7zFxNhLUslhdvnTw-32" vertex="1">
          <mxGeometry y="115" width="200" height="20" as="geometry" />
        </mxCell>
        <mxCell id="620f7zFxNhLUslhdvnTw-42" value="menu: Menu" style="text;html=1;strokeColor=none;fillColor=none;align=left;verticalAlign=middle;spacingLeft=4;spacingRight=4;overflow=hidden;rotatable=0;points=[[0,0.5],[1,0.5]];portConstraint=eastwest;whiteSpace=wrap;" parent="620f7zFxNhLUslhdvnTw-32" vertex="1">
          <mxGeometry y="135" width="200" height="20" as="geometry" />
        </mxCell>
        <mxCell id="620f7zFxNhLUslhdvnTw-44" value="basket: Basket" style="text;html=1;strokeColor=none;fillColor=none;align=left;verticalAlign=middle;spacingLeft=4;spacingRight=4;overflow=hidden;rotatable=0;points=[[0,0.5],[1,0.5]];portConstraint=eastwest;whiteSpace=wrap;" parent="620f7zFxNhLUslhdvnTw-32" vertex="1">
          <mxGeometry y="155" width="200" height="20" as="geometry" />
        </mxCell>
        <mxCell id="SGoPQsvxU46vvDtd17dG-7" value="orderItem" style="text;html=1;strokeColor=none;fillColor=none;align=left;verticalAlign=middle;spacingLeft=4;spacingRight=4;overflow=hidden;rotatable=0;points=[[0,0.5],[1,0.5]];portConstraint=eastwest;whiteSpace=wrap;" vertex="1" parent="620f7zFxNhLUslhdvnTw-32">
          <mxGeometry y="175" width="200" height="20" as="geometry" />
        </mxCell>
        <mxCell id="620f7zFxNhLUslhdvnTw-37" value="" style="line;strokeWidth=1;fillColor=none;align=left;verticalAlign=middle;spacingTop=-1;spacingLeft=3;spacingRight=3;rotatable=0;labelPosition=right;points=[];portConstraint=eastwest;" parent="620f7zFxNhLUslhdvnTw-32" vertex="1">
          <mxGeometry y="195" width="200" height="8" as="geometry" />
        </mxCell>
        <mxCell id="620f7zFxNhLUslhdvnTw-38" value="operations" style="text;html=1;strokeColor=none;fillColor=none;align=center;verticalAlign=middle;spacingLeft=4;spacingRight=4;overflow=hidden;rotatable=0;points=[[0,0.5],[1,0.5]];portConstraint=eastwest;whiteSpace=wrap;" parent="620f7zFxNhLUslhdvnTw-32" vertex="1">
          <mxGeometry y="203" width="200" height="20" as="geometry" />
        </mxCell>
        <mxCell id="620f7zFxNhLUslhdvnTw-39" value="__init__()" style="text;html=1;strokeColor=none;fillColor=none;align=left;verticalAlign=middle;spacingLeft=4;spacingRight=4;overflow=hidden;rotatable=0;points=[[0,0.5],[1,0.5]];portConstraint=eastwest;whiteSpace=wrap;" parent="620f7zFxNhLUslhdvnTw-32" vertex="1">
          <mxGeometry y="223" width="200" height="20" as="geometry" />
        </mxCell>
        <mxCell id="620f7zFxNhLUslhdvnTw-45" value="welcomeCustomer()" style="text;html=1;strokeColor=none;fillColor=none;align=left;verticalAlign=middle;spacingLeft=4;spacingRight=4;overflow=hidden;rotatable=0;points=[[0,0.5],[1,0.5]];portConstraint=eastwest;whiteSpace=wrap;" parent="620f7zFxNhLUslhdvnTw-32" vertex="1">
          <mxGeometry y="243" width="200" height="20" as="geometry" />
        </mxCell>
        <mxCell id="620f7zFxNhLUslhdvnTw-46" value="identifyCustomer(): boolean" style="text;html=1;strokeColor=none;fillColor=none;align=left;verticalAlign=middle;spacingLeft=4;spacingRight=4;overflow=hidden;rotatable=0;points=[[0,0.5],[1,0.5]];portConstraint=eastwest;whiteSpace=wrap;" parent="620f7zFxNhLUslhdvnTw-32" vertex="1">
          <mxGeometry y="263" width="200" height="20" as="geometry" />
        </mxCell>
        <mxCell id="620f7zFxNhLUslhdvnTw-47" value="showMenu()" style="text;html=1;strokeColor=none;fillColor=none;align=left;verticalAlign=middle;spacingLeft=4;spacingRight=4;overflow=hidden;rotatable=0;points=[[0,0.5],[1,0.5]];portConstraint=eastwest;whiteSpace=wrap;" parent="620f7zFxNhLUslhdvnTw-32" vertex="1">
          <mxGeometry y="283" width="200" height="20" as="geometry" />
        </mxCell>
        <mxCell id="620f7zFxNhLUslhdvnTw-48" value="takeOrder()" style="text;html=1;strokeColor=none;fillColor=none;align=left;verticalAlign=middle;spacingLeft=4;spacingRight=4;overflow=hidden;rotatable=0;points=[[0,0.5],[1,0.5]];portConstraint=eastwest;whiteSpace=wrap;" parent="620f7zFxNhLUslhdvnTw-32" vertex="1">
          <mxGeometry y="303" width="200" height="20" as="geometry" />
        </mxCell>
        <mxCell id="620f7zFxNhLUslhdvnTw-49" value="viewOrder()" style="text;html=1;strokeColor=none;fillColor=none;align=left;verticalAlign=middle;spacingLeft=4;spacingRight=4;overflow=hidden;rotatable=0;points=[[0,0.5],[1,0.5]];portConstraint=eastwest;whiteSpace=wrap;" parent="620f7zFxNhLUslhdvnTw-32" vertex="1">
          <mxGeometry y="323" width="200" height="20" as="geometry" />
        </mxCell>
        <mxCell id="620f7zFxNhLUslhdvnTw-50" value="viewBasket()" style="text;html=1;strokeColor=none;fillColor=none;align=left;verticalAlign=middle;spacingLeft=4;spacingRight=4;overflow=hidden;rotatable=0;points=[[0,0.5],[1,0.5]];portConstraint=eastwest;whiteSpace=wrap;" parent="620f7zFxNhLUslhdvnTw-32" vertex="1">
          <mxGeometry y="343" width="200" height="20" as="geometry" />
        </mxCell>
        <mxCell id="620f7zFxNhLUslhdvnTw-51" value="checkout()" style="text;html=1;strokeColor=none;fillColor=none;align=left;verticalAlign=middle;spacingLeft=4;spacingRight=4;overflow=hidden;rotatable=0;points=[[0,0.5],[1,0.5]];portConstraint=eastwest;whiteSpace=wrap;" parent="620f7zFxNhLUslhdvnTw-32" vertex="1">
          <mxGeometry y="363" width="200" height="20" as="geometry" />
        </mxCell>
        <mxCell id="SGoPQsvxU46vvDtd17dG-1" value="removeBasketItem(): boolean" style="text;html=1;strokeColor=none;fillColor=none;align=left;verticalAlign=middle;spacingLeft=4;spacingRight=4;overflow=hidden;rotatable=0;points=[[0,0.5],[1,0.5]];portConstraint=eastwest;whiteSpace=wrap;" vertex="1" parent="620f7zFxNhLUslhdvnTw-32">
          <mxGeometry y="383" width="200" height="20" as="geometry" />
        </mxCell>
        <mxCell id="SGoPQsvxU46vvDtd17dG-2" value="updateBasketQuantities(): boolean" style="text;html=1;strokeColor=none;fillColor=none;align=left;verticalAlign=middle;spacingLeft=4;spacingRight=4;overflow=hidden;rotatable=0;points=[[0,0.5],[1,0.5]];portConstraint=eastwest;whiteSpace=wrap;" vertex="1" parent="620f7zFxNhLUslhdvnTw-32">
          <mxGeometry y="403" width="200" height="20" as="geometry" />
        </mxCell>
        <mxCell id="SGoPQsvxU46vvDtd17dG-3" value="checkout()" style="text;html=1;strokeColor=none;fillColor=none;align=left;verticalAlign=middle;spacingLeft=4;spacingRight=4;overflow=hidden;rotatable=0;points=[[0,0.5],[1,0.5]];portConstraint=eastwest;whiteSpace=wrap;" vertex="1" parent="620f7zFxNhLUslhdvnTw-32">
          <mxGeometry y="423" width="200" height="20" as="geometry" />
        </mxCell>
        <mxCell id="SGoPQsvxU46vvDtd17dG-4" value="run()" style="text;html=1;strokeColor=none;fillColor=none;align=left;verticalAlign=middle;spacingLeft=4;spacingRight=4;overflow=hidden;rotatable=0;points=[[0,0.5],[1,0.5]];portConstraint=eastwest;whiteSpace=wrap;" vertex="1" parent="620f7zFxNhLUslhdvnTw-32">
          <mxGeometry y="443" width="200" height="20" as="geometry" />
        </mxCell>
        <mxCell id="SGoPQsvxU46vvDtd17dG-5" value="exitBot()" style="text;html=1;strokeColor=none;fillColor=none;align=left;verticalAlign=middle;spacingLeft=4;spacingRight=4;overflow=hidden;rotatable=0;points=[[0,0.5],[1,0.5]];portConstraint=eastwest;whiteSpace=wrap;" vertex="1" parent="620f7zFxNhLUslhdvnTw-32">
          <mxGeometry y="463" width="200" height="20" as="geometry" />
        </mxCell>
        <mxCell id="PzcVlKoHmZaDmm0lflhw-25" value="&lt;b&gt;Basket&lt;/b&gt;" style="swimlane;fontStyle=0;align=center;verticalAlign=top;childLayout=stackLayout;horizontal=1;startSize=55;horizontalStack=0;resizeParent=1;resizeParentMax=0;resizeLast=0;collapsible=0;marginBottom=0;html=1;whiteSpace=wrap;" parent="1" vertex="1">
          <mxGeometry x="-300" y="280" width="200" height="500" as="geometry" />
        </mxCell>
        <mxCell id="PzcVlKoHmZaDmm0lflhw-26" value="attributes" style="text;html=1;strokeColor=none;fillColor=none;align=center;verticalAlign=middle;spacingLeft=4;spacingRight=4;overflow=hidden;rotatable=0;points=[[0,0.5],[1,0.5]];portConstraint=eastwest;whiteSpace=wrap;" parent="PzcVlKoHmZaDmm0lflhw-25" vertex="1">
          <mxGeometry y="55" width="200" height="20" as="geometry" />
        </mxCell>
        <mxCell id="PzcVlKoHmZaDmm0lflhw-34" value="__basket: list" style="text;html=1;strokeColor=none;fillColor=none;align=left;verticalAlign=middle;spacingLeft=4;spacingRight=4;overflow=hidden;rotatable=0;points=[[0,0.5],[1,0.5]];portConstraint=eastwest;whiteSpace=wrap;" parent="PzcVlKoHmZaDmm0lflhw-25" vertex="1">
          <mxGeometry y="75" width="200" height="20" as="geometry" />
        </mxCell>
        <mxCell id="PzcVlKoHmZaDmm0lflhw-33" value="__basketTotal: float" style="text;html=1;strokeColor=none;fillColor=none;align=left;verticalAlign=middle;spacingLeft=4;spacingRight=4;overflow=hidden;rotatable=0;points=[[0,0.5],[1,0.5]];portConstraint=eastwest;whiteSpace=wrap;" parent="PzcVlKoHmZaDmm0lflhw-25" vertex="1">
          <mxGeometry y="95" width="200" height="20" as="geometry" />
        </mxCell>
        <mxCell id="PzcVlKoHmZaDmm0lflhw-27" value="__minOrderLevel: integer" style="text;html=1;strokeColor=none;fillColor=none;align=left;verticalAlign=middle;spacingLeft=4;spacingRight=4;overflow=hidden;rotatable=0;points=[[0,0.5],[1,0.5]];portConstraint=eastwest;whiteSpace=wrap;" parent="PzcVlKoHmZaDmm0lflhw-25" vertex="1">
          <mxGeometry y="115" width="200" height="20" as="geometry" />
        </mxCell>
        <mxCell id="PzcVlKoHmZaDmm0lflhw-28" value="" style="line;strokeWidth=1;fillColor=none;align=left;verticalAlign=middle;spacingTop=-1;spacingLeft=3;spacingRight=3;rotatable=0;labelPosition=right;points=[];portConstraint=eastwest;" parent="PzcVlKoHmZaDmm0lflhw-25" vertex="1">
          <mxGeometry y="135" width="200" height="8" as="geometry" />
        </mxCell>
        <mxCell id="PzcVlKoHmZaDmm0lflhw-29" value="operations" style="text;html=1;strokeColor=none;fillColor=none;align=center;verticalAlign=middle;spacingLeft=4;spacingRight=4;overflow=hidden;rotatable=0;points=[[0,0.5],[1,0.5]];portConstraint=eastwest;whiteSpace=wrap;" parent="PzcVlKoHmZaDmm0lflhw-25" vertex="1">
          <mxGeometry y="143" width="200" height="20" as="geometry" />
        </mxCell>
        <mxCell id="PzcVlKoHmZaDmm0lflhw-30" value="__init__()" style="text;html=1;strokeColor=none;fillColor=none;align=left;verticalAlign=middle;spacingLeft=4;spacingRight=4;overflow=hidden;rotatable=0;points=[[0,0.5],[1,0.5]];portConstraint=eastwest;whiteSpace=wrap;" parent="PzcVlKoHmZaDmm0lflhw-25" vertex="1">
          <mxGeometry y="163" width="200" height="20" as="geometry" />
        </mxCell>
        <mxCell id="PzcVlKoHmZaDmm0lflhw-31" value="setBasket(basket: list)" style="text;html=1;strokeColor=none;fillColor=none;align=left;verticalAlign=middle;spacingLeft=4;spacingRight=4;overflow=hidden;rotatable=0;points=[[0,0.5],[1,0.5]];portConstraint=eastwest;whiteSpace=wrap;" parent="PzcVlKoHmZaDmm0lflhw-25" vertex="1">
          <mxGeometry y="183" width="200" height="20" as="geometry" />
        </mxCell>
        <mxCell id="PzcVlKoHmZaDmm0lflhw-32" value="setBasketTotal(total: float)" style="text;html=1;strokeColor=none;fillColor=none;align=left;verticalAlign=middle;spacingLeft=4;spacingRight=4;overflow=hidden;rotatable=0;points=[[0,0.5],[1,0.5]];portConstraint=eastwest;whiteSpace=wrap;" parent="PzcVlKoHmZaDmm0lflhw-25" vertex="1">
          <mxGeometry y="203" width="200" height="20" as="geometry" />
        </mxCell>
        <mxCell id="PzcVlKoHmZaDmm0lflhw-164" value="setMinOrderLevel(minOrderLevel: integer) " style="text;html=1;strokeColor=none;fillColor=none;align=left;verticalAlign=middle;spacingLeft=4;spacingRight=4;overflow=hidden;rotatable=0;points=[[0,0.5],[1,0.5]];portConstraint=eastwest;whiteSpace=wrap;" parent="PzcVlKoHmZaDmm0lflhw-25" vertex="1">
          <mxGeometry y="223" width="200" height="37" as="geometry" />
        </mxCell>
        <mxCell id="PzcVlKoHmZaDmm0lflhw-165" value="getBasket(): list" style="text;html=1;strokeColor=none;fillColor=none;align=left;verticalAlign=middle;spacingLeft=4;spacingRight=4;overflow=hidden;rotatable=0;points=[[0,0.5],[1,0.5]];portConstraint=eastwest;whiteSpace=wrap;" parent="PzcVlKoHmZaDmm0lflhw-25" vertex="1">
          <mxGeometry y="260" width="200" height="20" as="geometry" />
        </mxCell>
        <mxCell id="PzcVlKoHmZaDmm0lflhw-166" value="getBasketTotal(): float" style="text;html=1;strokeColor=none;fillColor=none;align=left;verticalAlign=middle;spacingLeft=4;spacingRight=4;overflow=hidden;rotatable=0;points=[[0,0.5],[1,0.5]];portConstraint=eastwest;whiteSpace=wrap;" parent="PzcVlKoHmZaDmm0lflhw-25" vertex="1">
          <mxGeometry y="280" width="200" height="20" as="geometry" />
        </mxCell>
        <mxCell id="PzcVlKoHmZaDmm0lflhw-167" value="getBasketCount(): integer" style="text;html=1;strokeColor=none;fillColor=none;align=left;verticalAlign=middle;spacingLeft=4;spacingRight=4;overflow=hidden;rotatable=0;points=[[0,0.5],[1,0.5]];portConstraint=eastwest;whiteSpace=wrap;" parent="PzcVlKoHmZaDmm0lflhw-25" vertex="1">
          <mxGeometry y="300" width="200" height="20" as="geometry" />
        </mxCell>
        <mxCell id="PzcVlKoHmZaDmm0lflhw-168" value="getMinOrderLevel(): integer" style="text;html=1;strokeColor=none;fillColor=none;align=left;verticalAlign=middle;spacingLeft=4;spacingRight=4;overflow=hidden;rotatable=0;points=[[0,0.5],[1,0.5]];portConstraint=eastwest;whiteSpace=wrap;" parent="PzcVlKoHmZaDmm0lflhw-25" vertex="1">
          <mxGeometry y="320" width="200" height="20" as="geometry" />
        </mxCell>
        <mxCell id="PzcVlKoHmZaDmm0lflhw-169" value="addBasketTotal(cost: float)" style="text;html=1;strokeColor=none;fillColor=none;align=left;verticalAlign=middle;spacingLeft=4;spacingRight=4;overflow=hidden;rotatable=0;points=[[0,0.5],[1,0.5]];portConstraint=eastwest;whiteSpace=wrap;" parent="PzcVlKoHmZaDmm0lflhw-25" vertex="1">
          <mxGeometry y="340" width="200" height="20" as="geometry" />
        </mxCell>
        <mxCell id="PzcVlKoHmZaDmm0lflhw-170" value="addItem(basketItem: BasketItem)" style="text;html=1;strokeColor=none;fillColor=none;align=left;verticalAlign=middle;spacingLeft=4;spacingRight=4;overflow=hidden;rotatable=0;points=[[0,0.5],[1,0.5]];portConstraint=eastwest;whiteSpace=wrap;" parent="PzcVlKoHmZaDmm0lflhw-25" vertex="1">
          <mxGeometry y="360" width="200" height="20" as="geometry" />
        </mxCell>
        <mxCell id="PzcVlKoHmZaDmm0lflhw-171" value="displayBasket()" style="text;html=1;strokeColor=none;fillColor=none;align=left;verticalAlign=middle;spacingLeft=4;spacingRight=4;overflow=hidden;rotatable=0;points=[[0,0.5],[1,0.5]];portConstraint=eastwest;whiteSpace=wrap;" parent="PzcVlKoHmZaDmm0lflhw-25" vertex="1">
          <mxGeometry y="380" width="200" height="20" as="geometry" />
        </mxCell>
        <mxCell id="PzcVlKoHmZaDmm0lflhw-172" value="removeItem(meal: Meal)" style="text;html=1;strokeColor=none;fillColor=none;align=left;verticalAlign=middle;spacingLeft=4;spacingRight=4;overflow=hidden;rotatable=0;points=[[0,0.5],[1,0.5]];portConstraint=eastwest;whiteSpace=wrap;" parent="PzcVlKoHmZaDmm0lflhw-25" vertex="1">
          <mxGeometry y="400" width="200" height="20" as="geometry" />
        </mxCell>
        <mxCell id="PzcVlKoHmZaDmm0lflhw-173" value="updateQuantity(meal: Meal, new_quantity: integer)" style="text;html=1;strokeColor=none;fillColor=none;align=left;verticalAlign=middle;spacingLeft=4;spacingRight=4;overflow=hidden;rotatable=0;points=[[0,0.5],[1,0.5]];portConstraint=eastwest;whiteSpace=wrap;" parent="PzcVlKoHmZaDmm0lflhw-25" vertex="1">
          <mxGeometry y="420" width="200" height="40" as="geometry" />
        </mxCell>
        <mxCell id="PzcVlKoHmZaDmm0lflhw-174" value="clearBasket()" style="text;html=1;strokeColor=none;fillColor=none;align=left;verticalAlign=middle;spacingLeft=4;spacingRight=4;overflow=hidden;rotatable=0;points=[[0,0.5],[1,0.5]];portConstraint=eastwest;whiteSpace=wrap;" parent="PzcVlKoHmZaDmm0lflhw-25" vertex="1">
          <mxGeometry y="460" width="200" height="20" as="geometry" />
        </mxCell>
        <mxCell id="PzcVlKoHmZaDmm0lflhw-175" value="checkMinOrderLevel(): boolean" style="text;html=1;strokeColor=none;fillColor=none;align=left;verticalAlign=middle;spacingLeft=4;spacingRight=4;overflow=hidden;rotatable=0;points=[[0,0.5],[1,0.5]];portConstraint=eastwest;whiteSpace=wrap;" parent="PzcVlKoHmZaDmm0lflhw-25" vertex="1">
          <mxGeometry y="480" width="200" height="20" as="geometry" />
        </mxCell>
        <mxCell id="PzcVlKoHmZaDmm0lflhw-160" style="edgeStyle=orthogonalEdgeStyle;rounded=0;orthogonalLoop=1;jettySize=auto;html=1;entryX=0;entryY=0.5;entryDx=0;entryDy=0;exitX=1;exitY=0.5;exitDx=0;exitDy=0;" parent="1" source="PzcVlKoHmZaDmm0lflhw-152" target="PzcVlKoHmZaDmm0lflhw-125" edge="1">
          <mxGeometry relative="1" as="geometry" />
        </mxCell>
        <mxCell id="PzcVlKoHmZaDmm0lflhw-161" style="edgeStyle=orthogonalEdgeStyle;rounded=0;orthogonalLoop=1;jettySize=auto;html=1;entryX=0;entryY=0.5;entryDx=0;entryDy=0;" parent="1" source="PzcVlKoHmZaDmm0lflhw-44" target="PzcVlKoHmZaDmm0lflhw-83" edge="1">
          <mxGeometry relative="1" as="geometry" />
        </mxCell>
        <mxCell id="PzcVlKoHmZaDmm0lflhw-44" value="&lt;b&gt;OrderItem&lt;/b&gt;" style="swimlane;fontStyle=0;align=center;verticalAlign=top;childLayout=stackLayout;horizontal=1;startSize=55;horizontalStack=0;resizeParent=1;resizeParentMax=0;resizeLast=0;collapsible=0;marginBottom=0;html=1;whiteSpace=wrap;" parent="1" vertex="1">
          <mxGeometry x="-250" y="-170" width="160" height="390" as="geometry" />
        </mxCell>
        <mxCell id="PzcVlKoHmZaDmm0lflhw-45" value="attributes" style="text;html=1;strokeColor=none;fillColor=none;align=center;verticalAlign=middle;spacingLeft=4;spacingRight=4;overflow=hidden;rotatable=0;points=[[0,0.5],[1,0.5]];portConstraint=eastwest;whiteSpace=wrap;" parent="PzcVlKoHmZaDmm0lflhw-44" vertex="1">
          <mxGeometry y="55" width="160" height="20" as="geometry" />
        </mxCell>
        <mxCell id="PzcVlKoHmZaDmm0lflhw-46" value="__orderId: integer" style="text;html=1;strokeColor=none;fillColor=none;align=left;verticalAlign=middle;spacingLeft=4;spacingRight=4;overflow=hidden;rotatable=0;points=[[0,0.5],[1,0.5]];portConstraint=eastwest;whiteSpace=wrap;" parent="PzcVlKoHmZaDmm0lflhw-44" vertex="1">
          <mxGeometry y="75" width="160" height="20" as="geometry" />
        </mxCell>
        <mxCell id="PzcVlKoHmZaDmm0lflhw-47" value="__meal: Meal" style="text;html=1;strokeColor=none;fillColor=none;align=left;verticalAlign=middle;spacingLeft=4;spacingRight=4;overflow=hidden;rotatable=0;points=[[0,0.5],[1,0.5]];portConstraint=eastwest;whiteSpace=wrap;" parent="PzcVlKoHmZaDmm0lflhw-44" vertex="1">
          <mxGeometry y="95" width="160" height="20" as="geometry" />
        </mxCell>
        <mxCell id="PzcVlKoHmZaDmm0lflhw-51" value="__order: Order" style="text;html=1;strokeColor=none;fillColor=none;align=left;verticalAlign=middle;spacingLeft=4;spacingRight=4;overflow=hidden;rotatable=0;points=[[0,0.5],[1,0.5]];portConstraint=eastwest;whiteSpace=wrap;" parent="PzcVlKoHmZaDmm0lflhw-44" vertex="1">
          <mxGeometry y="115" width="160" height="20" as="geometry" />
        </mxCell>
        <mxCell id="PzcVlKoHmZaDmm0lflhw-48" value="__quantity: integer" style="text;html=1;strokeColor=none;fillColor=none;align=left;verticalAlign=middle;spacingLeft=4;spacingRight=4;overflow=hidden;rotatable=0;points=[[0,0.5],[1,0.5]];portConstraint=eastwest;whiteSpace=wrap;" parent="PzcVlKoHmZaDmm0lflhw-44" vertex="1">
          <mxGeometry y="135" width="160" height="20" as="geometry" />
        </mxCell>
        <mxCell id="PzcVlKoHmZaDmm0lflhw-49" value="" style="line;strokeWidth=1;fillColor=none;align=left;verticalAlign=middle;spacingTop=-1;spacingLeft=3;spacingRight=3;rotatable=0;labelPosition=right;points=[];portConstraint=eastwest;" parent="PzcVlKoHmZaDmm0lflhw-44" vertex="1">
          <mxGeometry y="155" width="160" height="8" as="geometry" />
        </mxCell>
        <mxCell id="PzcVlKoHmZaDmm0lflhw-50" value="operations" style="text;html=1;strokeColor=none;fillColor=none;align=center;verticalAlign=middle;spacingLeft=4;spacingRight=4;overflow=hidden;rotatable=0;points=[[0,0.5],[1,0.5]];portConstraint=eastwest;whiteSpace=wrap;" parent="PzcVlKoHmZaDmm0lflhw-44" vertex="1">
          <mxGeometry y="163" width="160" height="20" as="geometry" />
        </mxCell>
        <mxCell id="PzcVlKoHmZaDmm0lflhw-151" value="&lt;span style=&quot;box-sizing: border-box; border-width: 0px; border-style: solid; border-color: hsl(var(--border)); border-image: initial; --tw-border-spacing-x: 0; --tw-border-spacing-y: 0; --tw-translate-x: 0; --tw-translate-y: 0; --tw-rotate: 0; --tw-skew-x: 0; --tw-skew-y: 0; --tw-scale-x: 1; --tw-scale-y: 1; --tw-pan-x: ; --tw-pan-y: ; --tw-pinch-zoom: ; --tw-scroll-snap-strictness: proximity; --tw-gradient-from-position: ; --tw-gradient-via-position: ; --tw-gradient-to-position: ; --tw-ordinal: ; --tw-slashed-zero: ; --tw-numeric-figure: ; --tw-numeric-spacing: ; --tw-numeric-fraction: ; --tw-ring-inset: ; --tw-ring-offset-width: 0px; --tw-ring-offset-color: #fff; --tw-ring-color: rgba(59,130,246,.5); --tw-ring-offset-shadow: 0 0 #0000; --tw-ring-shadow: 0 0 #0000; --tw-shadow: 0 0 #0000; --tw-shadow-colored: 0 0 #0000; --tw-blur: ; --tw-brightness: ; --tw-contrast: ; --tw-grayscale: ; --tw-hue-rotate: ; --tw-invert: ; --tw-saturate: ; --tw-sepia: ; --tw-drop-shadow: ; --tw-backdrop-blur: ; --tw-backdrop-brightness: ; --tw-backdrop-contrast: ; --tw-backdrop-grayscale: ; --tw-backdrop-hue-rotate: ; --tw-backdrop-invert: ; --tw-backdrop-opacity: ; --tw-backdrop-saturate: ; --tw-backdrop-sepia: ;&quot; class=&quot;token&quot;&gt;__&lt;/span&gt;&lt;span style=&quot;box-sizing: border-box; border-width: 0px; border-style: solid; border-color: hsl(var(--border)); border-image: initial; --tw-border-spacing-x: 0; --tw-border-spacing-y: 0; --tw-translate-x: 0; --tw-translate-y: 0; --tw-rotate: 0; --tw-skew-x: 0; --tw-skew-y: 0; --tw-scale-x: 1; --tw-scale-y: 1; --tw-pan-x: ; --tw-pan-y: ; --tw-pinch-zoom: ; --tw-scroll-snap-strictness: proximity; --tw-gradient-from-position: ; --tw-gradient-via-position: ; --tw-gradient-to-position: ; --tw-ordinal: ; --tw-slashed-zero: ; --tw-numeric-figure: ; --tw-numeric-spacing: ; --tw-numeric-fraction: ; --tw-ring-inset: ; --tw-ring-offset-width: 0px; --tw-ring-offset-color: #fff; --tw-ring-color: rgba(59,130,246,.5); --tw-ring-offset-shadow: 0 0 #0000; --tw-ring-shadow: 0 0 #0000; --tw-shadow: 0 0 #0000; --tw-shadow-colored: 0 0 #0000; --tw-blur: ; --tw-brightness: ; --tw-contrast: ; --tw-grayscale: ; --tw-hue-rotate: ; --tw-invert: ; --tw-saturate: ; --tw-sepia: ; --tw-drop-shadow: ; --tw-backdrop-blur: ; --tw-backdrop-brightness: ; --tw-backdrop-contrast: ; --tw-backdrop-grayscale: ; --tw-backdrop-hue-rotate: ; --tw-backdrop-invert: ; --tw-backdrop-opacity: ; --tw-backdrop-saturate: ; --tw-backdrop-sepia: ;&quot; class=&quot;token&quot;&gt;init&lt;/span&gt;&lt;span style=&quot;box-sizing: border-box; border-width: 0px; border-style: solid; border-color: hsl(var(--border)); border-image: initial; --tw-border-spacing-x: 0; --tw-border-spacing-y: 0; --tw-translate-x: 0; --tw-translate-y: 0; --tw-rotate: 0; --tw-skew-x: 0; --tw-skew-y: 0; --tw-scale-x: 1; --tw-scale-y: 1; --tw-pan-x: ; --tw-pan-y: ; --tw-pinch-zoom: ; --tw-scroll-snap-strictness: proximity; --tw-gradient-from-position: ; --tw-gradient-via-position: ; --tw-gradient-to-position: ; --tw-ordinal: ; --tw-slashed-zero: ; --tw-numeric-figure: ; --tw-numeric-spacing: ; --tw-numeric-fraction: ; --tw-ring-inset: ; --tw-ring-offset-width: 0px; --tw-ring-offset-color: #fff; --tw-ring-color: rgba(59,130,246,.5); --tw-ring-offset-shadow: 0 0 #0000; --tw-ring-shadow: 0 0 #0000; --tw-shadow: 0 0 #0000; --tw-shadow-colored: 0 0 #0000; --tw-blur: ; --tw-brightness: ; --tw-contrast: ; --tw-grayscale: ; --tw-hue-rotate: ; --tw-invert: ; --tw-saturate: ; --tw-sepia: ; --tw-drop-shadow: ; --tw-backdrop-blur: ; --tw-backdrop-brightness: ; --tw-backdrop-contrast: ; --tw-backdrop-grayscale: ; --tw-backdrop-hue-rotate: ; --tw-backdrop-invert: ; --tw-backdrop-opacity: ; --tw-backdrop-saturate: ; --tw-backdrop-sepia: ;&quot; class=&quot;token&quot;&gt;__&lt;/span&gt;&lt;span style=&quot;box-sizing: border-box; border-width: 0px; border-style: solid; border-color: hsl(var(--border)); border-image: initial; --tw-border-spacing-x: 0; --tw-border-spacing-y: 0; --tw-translate-x: 0; --tw-translate-y: 0; --tw-rotate: 0; --tw-skew-x: 0; --tw-skew-y: 0; --tw-scale-x: 1; --tw-scale-y: 1; --tw-pan-x: ; --tw-pan-y: ; --tw-pinch-zoom: ; --tw-scroll-snap-strictness: proximity; --tw-gradient-from-position: ; --tw-gradient-via-position: ; --tw-gradient-to-position: ; --tw-ordinal: ; --tw-slashed-zero: ; --tw-numeric-figure: ; --tw-numeric-spacing: ; --tw-numeric-fraction: ; --tw-ring-inset: ; --tw-ring-offset-width: 0px; --tw-ring-offset-color: #fff; --tw-ring-color: rgba(59,130,246,.5); --tw-ring-offset-shadow: 0 0 #0000; --tw-ring-shadow: 0 0 #0000; --tw-shadow: 0 0 #0000; --tw-shadow-colored: 0 0 #0000; --tw-blur: ; --tw-brightness: ; --tw-contrast: ; --tw-grayscale: ; --tw-hue-rotate: ; --tw-invert: ; --tw-saturate: ; --tw-sepia: ; --tw-drop-shadow: ; --tw-backdrop-blur: ; --tw-backdrop-brightness: ; --tw-backdrop-contrast: ; --tw-backdrop-grayscale: ; --tw-backdrop-hue-rotate: ; --tw-backdrop-invert: ; --tw-backdrop-opacity: ; --tw-backdrop-saturate: ; --tw-backdrop-sepia: ;&quot;&gt;(order: Order, meal: Meal, quantity: integer)&lt;/span&gt;" style="text;html=1;strokeColor=none;fillColor=none;align=left;verticalAlign=middle;spacingLeft=4;spacingRight=4;overflow=hidden;rotatable=0;points=[[0,0.5],[1,0.5]];portConstraint=eastwest;whiteSpace=wrap;" parent="PzcVlKoHmZaDmm0lflhw-44" vertex="1">
          <mxGeometry y="183" width="160" height="37" as="geometry" />
        </mxCell>
        <mxCell id="PzcVlKoHmZaDmm0lflhw-152" value="save(): boolean" style="text;html=1;strokeColor=none;fillColor=none;align=left;verticalAlign=middle;spacingLeft=4;spacingRight=4;overflow=hidden;rotatable=0;points=[[0,0.5],[1,0.5]];portConstraint=eastwest;whiteSpace=wrap;" parent="PzcVlKoHmZaDmm0lflhw-44" vertex="1">
          <mxGeometry y="220" width="160" height="20" as="geometry" />
        </mxCell>
        <mxCell id="PzcVlKoHmZaDmm0lflhw-153" value="getMeal(): Meal" style="text;html=1;strokeColor=none;fillColor=none;align=left;verticalAlign=middle;spacingLeft=4;spacingRight=4;overflow=hidden;rotatable=0;points=[[0,0.5],[1,0.5]];portConstraint=eastwest;whiteSpace=wrap;" parent="PzcVlKoHmZaDmm0lflhw-44" vertex="1">
          <mxGeometry y="240" width="160" height="20" as="geometry" />
        </mxCell>
        <mxCell id="PzcVlKoHmZaDmm0lflhw-156" value="getOrder(): Order" style="text;html=1;strokeColor=none;fillColor=none;align=left;verticalAlign=middle;spacingLeft=4;spacingRight=4;overflow=hidden;rotatable=0;points=[[0,0.5],[1,0.5]];portConstraint=eastwest;whiteSpace=wrap;" parent="PzcVlKoHmZaDmm0lflhw-44" vertex="1">
          <mxGeometry y="260" width="160" height="20" as="geometry" />
        </mxCell>
        <mxCell id="PzcVlKoHmZaDmm0lflhw-157" value="getMealPrice(): float" style="text;html=1;strokeColor=none;fillColor=none;align=left;verticalAlign=middle;spacingLeft=4;spacingRight=4;overflow=hidden;rotatable=0;points=[[0,0.5],[1,0.5]];portConstraint=eastwest;whiteSpace=wrap;" parent="PzcVlKoHmZaDmm0lflhw-44" vertex="1">
          <mxGeometry y="280" width="160" height="20" as="geometry" />
        </mxCell>
        <mxCell id="PzcVlKoHmZaDmm0lflhw-155" value="getQuantity(): integer" style="text;html=1;strokeColor=none;fillColor=none;align=left;verticalAlign=middle;spacingLeft=4;spacingRight=4;overflow=hidden;rotatable=0;points=[[0,0.5],[1,0.5]];portConstraint=eastwest;whiteSpace=wrap;" parent="PzcVlKoHmZaDmm0lflhw-44" vertex="1">
          <mxGeometry y="300" width="160" height="20" as="geometry" />
        </mxCell>
        <mxCell id="PzcVlKoHmZaDmm0lflhw-154" value="setMeal(meal: Meal): void" style="text;html=1;strokeColor=none;fillColor=none;align=left;verticalAlign=middle;spacingLeft=4;spacingRight=4;overflow=hidden;rotatable=0;points=[[0,0.5],[1,0.5]];portConstraint=eastwest;whiteSpace=wrap;" parent="PzcVlKoHmZaDmm0lflhw-44" vertex="1">
          <mxGeometry y="320" width="160" height="20" as="geometry" />
        </mxCell>
        <mxCell id="PzcVlKoHmZaDmm0lflhw-158" value="setQuantity(quantity: integer): void" style="text;html=1;strokeColor=none;fillColor=none;align=left;verticalAlign=middle;spacingLeft=4;spacingRight=4;overflow=hidden;rotatable=0;points=[[0,0.5],[1,0.5]];portConstraint=eastwest;whiteSpace=wrap;" parent="PzcVlKoHmZaDmm0lflhw-44" vertex="1">
          <mxGeometry y="340" width="160" height="30" as="geometry" />
        </mxCell>
        <mxCell id="PzcVlKoHmZaDmm0lflhw-159" value="setOrder(order: Order): void" style="text;html=1;strokeColor=none;fillColor=none;align=left;verticalAlign=middle;spacingLeft=4;spacingRight=4;overflow=hidden;rotatable=0;points=[[0,0.5],[1,0.5]];portConstraint=eastwest;whiteSpace=wrap;" parent="PzcVlKoHmZaDmm0lflhw-44" vertex="1">
          <mxGeometry y="370" width="160" height="20" as="geometry" />
        </mxCell>
        <mxCell id="PzcVlKoHmZaDmm0lflhw-138" style="edgeStyle=orthogonalEdgeStyle;rounded=0;orthogonalLoop=1;jettySize=auto;html=1;entryX=1;entryY=0.25;entryDx=0;entryDy=0;exitX=0.493;exitY=0.986;exitDx=0;exitDy=0;exitPerimeter=0;" parent="1" source="PzcVlKoHmZaDmm0lflhw-76" target="PzcVlKoHmZaDmm0lflhw-77" edge="1">
          <mxGeometry relative="1" as="geometry" />
        </mxCell>
        <mxCell id="PzcVlKoHmZaDmm0lflhw-52" value="&lt;b&gt;meal&lt;/b&gt;" style="swimlane;fontStyle=0;align=center;verticalAlign=top;childLayout=stackLayout;horizontal=1;startSize=55;horizontalStack=0;resizeParent=1;resizeParentMax=0;resizeLast=0;collapsible=0;marginBottom=0;html=1;whiteSpace=wrap;" parent="1" vertex="1">
          <mxGeometry x="290" y="-710" width="140" height="523" as="geometry" />
        </mxCell>
        <mxCell id="PzcVlKoHmZaDmm0lflhw-53" value="attributes" style="text;html=1;strokeColor=none;fillColor=none;align=center;verticalAlign=middle;spacingLeft=4;spacingRight=4;overflow=hidden;rotatable=0;points=[[0,0.5],[1,0.5]];portConstraint=eastwest;whiteSpace=wrap;" parent="PzcVlKoHmZaDmm0lflhw-52" vertex="1">
          <mxGeometry y="55" width="140" height="20" as="geometry" />
        </mxCell>
        <mxCell id="PzcVlKoHmZaDmm0lflhw-54" value="mealId     " style="text;html=1;strokeColor=none;fillColor=none;align=left;verticalAlign=middle;spacingLeft=4;spacingRight=4;overflow=hidden;rotatable=0;points=[[0,0.5],[1,0.5]];portConstraint=eastwest;whiteSpace=wrap;" parent="PzcVlKoHmZaDmm0lflhw-52" vertex="1">
          <mxGeometry y="75" width="140" height="20" as="geometry" />
        </mxCell>
        <mxCell id="PzcVlKoHmZaDmm0lflhw-55" value="mealName   " style="text;html=1;strokeColor=none;fillColor=none;align=left;verticalAlign=middle;spacingLeft=4;spacingRight=4;overflow=hidden;rotatable=0;points=[[0,0.5],[1,0.5]];portConstraint=eastwest;whiteSpace=wrap;" parent="PzcVlKoHmZaDmm0lflhw-52" vertex="1">
          <mxGeometry y="95" width="140" height="20" as="geometry" />
        </mxCell>
        <mxCell id="PzcVlKoHmZaDmm0lflhw-56" value="mealPrice  " style="text;html=1;strokeColor=none;fillColor=none;align=left;verticalAlign=middle;spacingLeft=4;spacingRight=4;overflow=hidden;rotatable=0;points=[[0,0.5],[1,0.5]];portConstraint=eastwest;whiteSpace=wrap;" parent="PzcVlKoHmZaDmm0lflhw-52" vertex="1">
          <mxGeometry y="115" width="140" height="20" as="geometry" />
        </mxCell>
        <mxCell id="PzcVlKoHmZaDmm0lflhw-57" value="courseId   " style="text;html=1;strokeColor=none;fillColor=none;align=left;verticalAlign=middle;spacingLeft=4;spacingRight=4;overflow=hidden;rotatable=0;points=[[0,0.5],[1,0.5]];portConstraint=eastwest;whiteSpace=wrap;" parent="PzcVlKoHmZaDmm0lflhw-52" vertex="1">
          <mxGeometry y="135" width="140" height="20" as="geometry" />
        </mxCell>
        <mxCell id="PzcVlKoHmZaDmm0lflhw-58" value="course     " style="text;html=1;strokeColor=none;fillColor=none;align=left;verticalAlign=middle;spacingLeft=4;spacingRight=4;overflow=hidden;rotatable=0;points=[[0,0.5],[1,0.5]];portConstraint=eastwest;whiteSpace=wrap;" parent="PzcVlKoHmZaDmm0lflhw-52" vertex="1">
          <mxGeometry y="155" width="140" height="20" as="geometry" />
        </mxCell>
        <mxCell id="PzcVlKoHmZaDmm0lflhw-59" value="" style="line;strokeWidth=1;fillColor=none;align=left;verticalAlign=middle;spacingTop=-1;spacingLeft=3;spacingRight=3;rotatable=0;labelPosition=right;points=[];portConstraint=eastwest;" parent="PzcVlKoHmZaDmm0lflhw-52" vertex="1">
          <mxGeometry y="175" width="140" height="8" as="geometry" />
        </mxCell>
        <mxCell id="PzcVlKoHmZaDmm0lflhw-60" value="operations" style="text;html=1;strokeColor=none;fillColor=none;align=center;verticalAlign=middle;spacingLeft=4;spacingRight=4;overflow=hidden;rotatable=0;points=[[0,0.5],[1,0.5]];portConstraint=eastwest;whiteSpace=wrap;" parent="PzcVlKoHmZaDmm0lflhw-52" vertex="1">
          <mxGeometry y="183" width="140" height="20" as="geometry" />
        </mxCell>
        <mxCell id="PzcVlKoHmZaDmm0lflhw-61" value="&lt;span style=&quot;box-sizing: border-box; border-width: 0px; border-style: solid; border-color: hsl(var(--border)); border-image: initial; --tw-border-spacing-x: 0; --tw-border-spacing-y: 0; --tw-translate-x: 0; --tw-translate-y: 0; --tw-rotate: 0; --tw-skew-x: 0; --tw-skew-y: 0; --tw-scale-x: 1; --tw-scale-y: 1; --tw-pan-x: ; --tw-pan-y: ; --tw-pinch-zoom: ; --tw-scroll-snap-strictness: proximity; --tw-gradient-from-position: ; --tw-gradient-via-position: ; --tw-gradient-to-position: ; --tw-ordinal: ; --tw-slashed-zero: ; --tw-numeric-figure: ; --tw-numeric-spacing: ; --tw-numeric-fraction: ; --tw-ring-inset: ; --tw-ring-offset-width: 0px; --tw-ring-offset-color: #fff; --tw-ring-color: rgba(59,130,246,.5); --tw-ring-offset-shadow: 0 0 #0000; --tw-ring-shadow: 0 0 #0000; --tw-shadow: 0 0 #0000; --tw-shadow-colored: 0 0 #0000; --tw-blur: ; --tw-brightness: ; --tw-contrast: ; --tw-grayscale: ; --tw-hue-rotate: ; --tw-invert: ; --tw-saturate: ; --tw-sepia: ; --tw-drop-shadow: ; --tw-backdrop-blur: ; --tw-backdrop-brightness: ; --tw-backdrop-contrast: ; --tw-backdrop-grayscale: ; --tw-backdrop-hue-rotate: ; --tw-backdrop-invert: ; --tw-backdrop-opacity: ; --tw-backdrop-saturate: ; --tw-backdrop-sepia: ;&quot; class=&quot;token&quot;&gt;__&lt;/span&gt;&lt;span style=&quot;box-sizing: border-box; border-width: 0px; border-style: solid; border-color: hsl(var(--border)); border-image: initial; --tw-border-spacing-x: 0; --tw-border-spacing-y: 0; --tw-translate-x: 0; --tw-translate-y: 0; --tw-rotate: 0; --tw-skew-x: 0; --tw-skew-y: 0; --tw-scale-x: 1; --tw-scale-y: 1; --tw-pan-x: ; --tw-pan-y: ; --tw-pinch-zoom: ; --tw-scroll-snap-strictness: proximity; --tw-gradient-from-position: ; --tw-gradient-via-position: ; --tw-gradient-to-position: ; --tw-ordinal: ; --tw-slashed-zero: ; --tw-numeric-figure: ; --tw-numeric-spacing: ; --tw-numeric-fraction: ; --tw-ring-inset: ; --tw-ring-offset-width: 0px; --tw-ring-offset-color: #fff; --tw-ring-color: rgba(59,130,246,.5); --tw-ring-offset-shadow: 0 0 #0000; --tw-ring-shadow: 0 0 #0000; --tw-shadow: 0 0 #0000; --tw-shadow-colored: 0 0 #0000; --tw-blur: ; --tw-brightness: ; --tw-contrast: ; --tw-grayscale: ; --tw-hue-rotate: ; --tw-invert: ; --tw-saturate: ; --tw-sepia: ; --tw-drop-shadow: ; --tw-backdrop-blur: ; --tw-backdrop-brightness: ; --tw-backdrop-contrast: ; --tw-backdrop-grayscale: ; --tw-backdrop-hue-rotate: ; --tw-backdrop-invert: ; --tw-backdrop-opacity: ; --tw-backdrop-saturate: ; --tw-backdrop-sepia: ;&quot; class=&quot;token&quot;&gt;init&lt;/span&gt;&lt;span style=&quot;box-sizing: border-box; border-width: 0px; border-style: solid; border-color: hsl(var(--border)); border-image: initial; --tw-border-spacing-x: 0; --tw-border-spacing-y: 0; --tw-translate-x: 0; --tw-translate-y: 0; --tw-rotate: 0; --tw-skew-x: 0; --tw-skew-y: 0; --tw-scale-x: 1; --tw-scale-y: 1; --tw-pan-x: ; --tw-pan-y: ; --tw-pinch-zoom: ; --tw-scroll-snap-strictness: proximity; --tw-gradient-from-position: ; --tw-gradient-via-position: ; --tw-gradient-to-position: ; --tw-ordinal: ; --tw-slashed-zero: ; --tw-numeric-figure: ; --tw-numeric-spacing: ; --tw-numeric-fraction: ; --tw-ring-inset: ; --tw-ring-offset-width: 0px; --tw-ring-offset-color: #fff; --tw-ring-color: rgba(59,130,246,.5); --tw-ring-offset-shadow: 0 0 #0000; --tw-ring-shadow: 0 0 #0000; --tw-shadow: 0 0 #0000; --tw-shadow-colored: 0 0 #0000; --tw-blur: ; --tw-brightness: ; --tw-contrast: ; --tw-grayscale: ; --tw-hue-rotate: ; --tw-invert: ; --tw-saturate: ; --tw-sepia: ; --tw-drop-shadow: ; --tw-backdrop-blur: ; --tw-backdrop-brightness: ; --tw-backdrop-contrast: ; --tw-backdrop-grayscale: ; --tw-backdrop-hue-rotate: ; --tw-backdrop-invert: ; --tw-backdrop-opacity: ; --tw-backdrop-saturate: ; --tw-backdrop-sepia: ;&quot; class=&quot;token&quot;&gt;__&lt;/span&gt;&lt;span style=&quot;box-sizing: border-box; border-width: 0px; border-style: solid; border-color: hsl(var(--border)); border-image: initial; --tw-border-spacing-x: 0; --tw-border-spacing-y: 0; --tw-translate-x: 0; --tw-translate-y: 0; --tw-rotate: 0; --tw-skew-x: 0; --tw-skew-y: 0; --tw-scale-x: 1; --tw-scale-y: 1; --tw-pan-x: ; --tw-pan-y: ; --tw-pinch-zoom: ; --tw-scroll-snap-strictness: proximity; --tw-gradient-from-position: ; --tw-gradient-via-position: ; --tw-gradient-to-position: ; --tw-ordinal: ; --tw-slashed-zero: ; --tw-numeric-figure: ; --tw-numeric-spacing: ; --tw-numeric-fraction: ; --tw-ring-inset: ; --tw-ring-offset-width: 0px; --tw-ring-offset-color: #fff; --tw-ring-color: rgba(59,130,246,.5); --tw-ring-offset-shadow: 0 0 #0000; --tw-ring-shadow: 0 0 #0000; --tw-shadow: 0 0 #0000; --tw-shadow-colored: 0 0 #0000; --tw-blur: ; --tw-brightness: ; --tw-contrast: ; --tw-grayscale: ; --tw-hue-rotate: ; --tw-invert: ; --tw-saturate: ; --tw-sepia: ; --tw-drop-shadow: ; --tw-backdrop-blur: ; --tw-backdrop-brightness: ; --tw-backdrop-contrast: ; --tw-backdrop-grayscale: ; --tw-backdrop-hue-rotate: ; --tw-backdrop-invert: ; --tw-backdrop-opacity: ; --tw-backdrop-saturate: ; --tw-backdrop-sepia: ;&quot;&gt;()&lt;/span&gt;" style="text;html=1;strokeColor=none;fillColor=none;align=left;verticalAlign=middle;spacingLeft=4;spacingRight=4;overflow=hidden;rotatable=0;points=[[0,0.5],[1,0.5]];portConstraint=eastwest;whiteSpace=wrap;" parent="PzcVlKoHmZaDmm0lflhw-52" vertex="1">
          <mxGeometry y="203" width="140" height="20" as="geometry" />
        </mxCell>
        <mxCell id="PzcVlKoHmZaDmm0lflhw-62" value="setMeal()" style="text;html=1;strokeColor=none;fillColor=none;align=left;verticalAlign=middle;spacingLeft=4;spacingRight=4;overflow=hidden;rotatable=0;points=[[0,0.5],[1,0.5]];portConstraint=eastwest;whiteSpace=wrap;" parent="PzcVlKoHmZaDmm0lflhw-52" vertex="1">
          <mxGeometry y="223" width="140" height="20" as="geometry" />
        </mxCell>
        <mxCell id="PzcVlKoHmZaDmm0lflhw-63" value="setMealId()" style="text;html=1;strokeColor=none;fillColor=none;align=left;verticalAlign=middle;spacingLeft=4;spacingRight=4;overflow=hidden;rotatable=0;points=[[0,0.5],[1,0.5]];portConstraint=eastwest;whiteSpace=wrap;" parent="PzcVlKoHmZaDmm0lflhw-52" vertex="1">
          <mxGeometry y="243" width="140" height="20" as="geometry" />
        </mxCell>
        <mxCell id="PzcVlKoHmZaDmm0lflhw-64" value="setMealName()" style="text;html=1;strokeColor=none;fillColor=none;align=left;verticalAlign=middle;spacingLeft=4;spacingRight=4;overflow=hidden;rotatable=0;points=[[0,0.5],[1,0.5]];portConstraint=eastwest;whiteSpace=wrap;" parent="PzcVlKoHmZaDmm0lflhw-52" vertex="1">
          <mxGeometry y="263" width="140" height="20" as="geometry" />
        </mxCell>
        <mxCell id="PzcVlKoHmZaDmm0lflhw-65" value="setMealPrice()" style="text;html=1;strokeColor=none;fillColor=none;align=left;verticalAlign=middle;spacingLeft=4;spacingRight=4;overflow=hidden;rotatable=0;points=[[0,0.5],[1,0.5]];portConstraint=eastwest;whiteSpace=wrap;" parent="PzcVlKoHmZaDmm0lflhw-52" vertex="1">
          <mxGeometry y="283" width="140" height="20" as="geometry" />
        </mxCell>
        <mxCell id="PzcVlKoHmZaDmm0lflhw-66" value="setCourseId()" style="text;html=1;strokeColor=none;fillColor=none;align=left;verticalAlign=middle;spacingLeft=4;spacingRight=4;overflow=hidden;rotatable=0;points=[[0,0.5],[1,0.5]];portConstraint=eastwest;whiteSpace=wrap;" parent="PzcVlKoHmZaDmm0lflhw-52" vertex="1">
          <mxGeometry y="303" width="140" height="20" as="geometry" />
        </mxCell>
        <mxCell id="PzcVlKoHmZaDmm0lflhw-67" value="setCourse()" style="text;html=1;strokeColor=none;fillColor=none;align=left;verticalAlign=middle;spacingLeft=4;spacingRight=4;overflow=hidden;rotatable=0;points=[[0,0.5],[1,0.5]];portConstraint=eastwest;whiteSpace=wrap;" parent="PzcVlKoHmZaDmm0lflhw-52" vertex="1">
          <mxGeometry y="323" width="140" height="20" as="geometry" />
        </mxCell>
        <mxCell id="PzcVlKoHmZaDmm0lflhw-68" value="getMealId()" style="text;html=1;strokeColor=none;fillColor=none;align=left;verticalAlign=middle;spacingLeft=4;spacingRight=4;overflow=hidden;rotatable=0;points=[[0,0.5],[1,0.5]];portConstraint=eastwest;whiteSpace=wrap;" parent="PzcVlKoHmZaDmm0lflhw-52" vertex="1">
          <mxGeometry y="343" width="140" height="20" as="geometry" />
        </mxCell>
        <mxCell id="PzcVlKoHmZaDmm0lflhw-69" value="getMealName()" style="text;html=1;strokeColor=none;fillColor=none;align=left;verticalAlign=middle;spacingLeft=4;spacingRight=4;overflow=hidden;rotatable=0;points=[[0,0.5],[1,0.5]];portConstraint=eastwest;whiteSpace=wrap;" parent="PzcVlKoHmZaDmm0lflhw-52" vertex="1">
          <mxGeometry y="363" width="140" height="20" as="geometry" />
        </mxCell>
        <mxCell id="PzcVlKoHmZaDmm0lflhw-70" value="getMealPrice()" style="text;html=1;strokeColor=none;fillColor=none;align=left;verticalAlign=middle;spacingLeft=4;spacingRight=4;overflow=hidden;rotatable=0;points=[[0,0.5],[1,0.5]];portConstraint=eastwest;whiteSpace=wrap;" parent="PzcVlKoHmZaDmm0lflhw-52" vertex="1">
          <mxGeometry y="383" width="140" height="20" as="geometry" />
        </mxCell>
        <mxCell id="PzcVlKoHmZaDmm0lflhw-71" value="getCourseId()" style="text;html=1;strokeColor=none;fillColor=none;align=left;verticalAlign=middle;spacingLeft=4;spacingRight=4;overflow=hidden;rotatable=0;points=[[0,0.5],[1,0.5]];portConstraint=eastwest;whiteSpace=wrap;" parent="PzcVlKoHmZaDmm0lflhw-52" vertex="1">
          <mxGeometry y="403" width="140" height="20" as="geometry" />
        </mxCell>
        <mxCell id="PzcVlKoHmZaDmm0lflhw-72" value="getCourse()" style="text;html=1;strokeColor=none;fillColor=none;align=left;verticalAlign=middle;spacingLeft=4;spacingRight=4;overflow=hidden;rotatable=0;points=[[0,0.5],[1,0.5]];portConstraint=eastwest;whiteSpace=wrap;" parent="PzcVlKoHmZaDmm0lflhw-52" vertex="1">
          <mxGeometry y="423" width="140" height="20" as="geometry" />
        </mxCell>
        <mxCell id="PzcVlKoHmZaDmm0lflhw-73" value="&lt;span style=&quot;box-sizing: border-box; border-width: 0px; border-style: solid; border-color: hsl(var(--border)); border-image: initial; --tw-border-spacing-x: 0; --tw-border-spacing-y: 0; --tw-translate-x: 0; --tw-translate-y: 0; --tw-rotate: 0; --tw-skew-x: 0; --tw-skew-y: 0; --tw-scale-x: 1; --tw-scale-y: 1; --tw-pan-x: ; --tw-pan-y: ; --tw-pinch-zoom: ; --tw-scroll-snap-strictness: proximity; --tw-gradient-from-position: ; --tw-gradient-via-position: ; --tw-gradient-to-position: ; --tw-ordinal: ; --tw-slashed-zero: ; --tw-numeric-figure: ; --tw-numeric-spacing: ; --tw-numeric-fraction: ; --tw-ring-inset: ; --tw-ring-offset-width: 0px; --tw-ring-offset-color: #fff; --tw-ring-color: rgba(59,130,246,.5); --tw-ring-offset-shadow: 0 0 #0000; --tw-ring-shadow: 0 0 #0000; --tw-shadow: 0 0 #0000; --tw-shadow-colored: 0 0 #0000; --tw-blur: ; --tw-brightness: ; --tw-contrast: ; --tw-grayscale: ; --tw-hue-rotate: ; --tw-invert: ; --tw-saturate: ; --tw-sepia: ; --tw-drop-shadow: ; --tw-backdrop-blur: ; --tw-backdrop-brightness: ; --tw-backdrop-contrast: ; --tw-backdrop-grayscale: ; --tw-backdrop-hue-rotate: ; --tw-backdrop-invert: ; --tw-backdrop-opacity: ; --tw-backdrop-saturate: ; --tw-backdrop-sepia: ;&quot; class=&quot;token&quot;&gt;__&lt;/span&gt;&lt;span style=&quot;box-sizing: border-box; border-width: 0px; border-style: solid; border-color: hsl(var(--border)); border-image: initial; --tw-border-spacing-x: 0; --tw-border-spacing-y: 0; --tw-translate-x: 0; --tw-translate-y: 0; --tw-rotate: 0; --tw-skew-x: 0; --tw-skew-y: 0; --tw-scale-x: 1; --tw-scale-y: 1; --tw-pan-x: ; --tw-pan-y: ; --tw-pinch-zoom: ; --tw-scroll-snap-strictness: proximity; --tw-gradient-from-position: ; --tw-gradient-via-position: ; --tw-gradient-to-position: ; --tw-ordinal: ; --tw-slashed-zero: ; --tw-numeric-figure: ; --tw-numeric-spacing: ; --tw-numeric-fraction: ; --tw-ring-inset: ; --tw-ring-offset-width: 0px; --tw-ring-offset-color: #fff; --tw-ring-color: rgba(59,130,246,.5); --tw-ring-offset-shadow: 0 0 #0000; --tw-ring-shadow: 0 0 #0000; --tw-shadow: 0 0 #0000; --tw-shadow-colored: 0 0 #0000; --tw-blur: ; --tw-brightness: ; --tw-contrast: ; --tw-grayscale: ; --tw-hue-rotate: ; --tw-invert: ; --tw-saturate: ; --tw-sepia: ; --tw-drop-shadow: ; --tw-backdrop-blur: ; --tw-backdrop-brightness: ; --tw-backdrop-contrast: ; --tw-backdrop-grayscale: ; --tw-backdrop-hue-rotate: ; --tw-backdrop-invert: ; --tw-backdrop-opacity: ; --tw-backdrop-saturate: ; --tw-backdrop-sepia: ;&quot; class=&quot;token&quot;&gt;str&lt;/span&gt;&lt;span style=&quot;box-sizing: border-box; border-width: 0px; border-style: solid; border-color: hsl(var(--border)); border-image: initial; --tw-border-spacing-x: 0; --tw-border-spacing-y: 0; --tw-translate-x: 0; --tw-translate-y: 0; --tw-rotate: 0; --tw-skew-x: 0; --tw-skew-y: 0; --tw-scale-x: 1; --tw-scale-y: 1; --tw-pan-x: ; --tw-pan-y: ; --tw-pinch-zoom: ; --tw-scroll-snap-strictness: proximity; --tw-gradient-from-position: ; --tw-gradient-via-position: ; --tw-gradient-to-position: ; --tw-ordinal: ; --tw-slashed-zero: ; --tw-numeric-figure: ; --tw-numeric-spacing: ; --tw-numeric-fraction: ; --tw-ring-inset: ; --tw-ring-offset-width: 0px; --tw-ring-offset-color: #fff; --tw-ring-color: rgba(59,130,246,.5); --tw-ring-offset-shadow: 0 0 #0000; --tw-ring-shadow: 0 0 #0000; --tw-shadow: 0 0 #0000; --tw-shadow-colored: 0 0 #0000; --tw-blur: ; --tw-brightness: ; --tw-contrast: ; --tw-grayscale: ; --tw-hue-rotate: ; --tw-invert: ; --tw-saturate: ; --tw-sepia: ; --tw-drop-shadow: ; --tw-backdrop-blur: ; --tw-backdrop-brightness: ; --tw-backdrop-contrast: ; --tw-backdrop-grayscale: ; --tw-backdrop-hue-rotate: ; --tw-backdrop-invert: ; --tw-backdrop-opacity: ; --tw-backdrop-saturate: ; --tw-backdrop-sepia: ;&quot; class=&quot;token&quot;&gt;__&lt;/span&gt;&lt;span style=&quot;box-sizing: border-box; border-width: 0px; border-style: solid; border-color: hsl(var(--border)); border-image: initial; --tw-border-spacing-x: 0; --tw-border-spacing-y: 0; --tw-translate-x: 0; --tw-translate-y: 0; --tw-rotate: 0; --tw-skew-x: 0; --tw-skew-y: 0; --tw-scale-x: 1; --tw-scale-y: 1; --tw-pan-x: ; --tw-pan-y: ; --tw-pinch-zoom: ; --tw-scroll-snap-strictness: proximity; --tw-gradient-from-position: ; --tw-gradient-via-position: ; --tw-gradient-to-position: ; --tw-ordinal: ; --tw-slashed-zero: ; --tw-numeric-figure: ; --tw-numeric-spacing: ; --tw-numeric-fraction: ; --tw-ring-inset: ; --tw-ring-offset-width: 0px; --tw-ring-offset-color: #fff; --tw-ring-color: rgba(59,130,246,.5); --tw-ring-offset-shadow: 0 0 #0000; --tw-ring-shadow: 0 0 #0000; --tw-shadow: 0 0 #0000; --tw-shadow-colored: 0 0 #0000; --tw-blur: ; --tw-brightness: ; --tw-contrast: ; --tw-grayscale: ; --tw-hue-rotate: ; --tw-invert: ; --tw-saturate: ; --tw-sepia: ; --tw-drop-shadow: ; --tw-backdrop-blur: ; --tw-backdrop-brightness: ; --tw-backdrop-contrast: ; --tw-backdrop-grayscale: ; --tw-backdrop-hue-rotate: ; --tw-backdrop-invert: ; --tw-backdrop-opacity: ; --tw-backdrop-saturate: ; --tw-backdrop-sepia: ;&quot;&gt;()&lt;/span&gt;" style="text;html=1;strokeColor=none;fillColor=none;align=left;verticalAlign=middle;spacingLeft=4;spacingRight=4;overflow=hidden;rotatable=0;points=[[0,0.5],[1,0.5]];portConstraint=eastwest;whiteSpace=wrap;" parent="PzcVlKoHmZaDmm0lflhw-52" vertex="1">
          <mxGeometry y="443" width="140" height="20" as="geometry" />
        </mxCell>
        <mxCell id="PzcVlKoHmZaDmm0lflhw-74" value=" display()" style="text;html=1;strokeColor=none;fillColor=none;align=left;verticalAlign=middle;spacingLeft=4;spacingRight=4;overflow=hidden;rotatable=0;points=[[0,0.5],[1,0.5]];portConstraint=eastwest;whiteSpace=wrap;" parent="PzcVlKoHmZaDmm0lflhw-52" vertex="1">
          <mxGeometry y="463" width="140" height="20" as="geometry" />
        </mxCell>
        <mxCell id="PzcVlKoHmZaDmm0lflhw-75" value="existsDB()" style="text;html=1;strokeColor=none;fillColor=none;align=left;verticalAlign=middle;spacingLeft=4;spacingRight=4;overflow=hidden;rotatable=0;points=[[0,0.5],[1,0.5]];portConstraint=eastwest;whiteSpace=wrap;" parent="PzcVlKoHmZaDmm0lflhw-52" vertex="1">
          <mxGeometry y="483" width="140" height="20" as="geometry" />
        </mxCell>
        <mxCell id="PzcVlKoHmZaDmm0lflhw-76" value="save()" style="text;html=1;strokeColor=none;fillColor=none;align=left;verticalAlign=middle;spacingLeft=4;spacingRight=4;overflow=hidden;rotatable=0;points=[[0,0.5],[1,0.5]];portConstraint=eastwest;whiteSpace=wrap;" parent="PzcVlKoHmZaDmm0lflhw-52" vertex="1">
          <mxGeometry y="503" width="140" height="20" as="geometry" />
        </mxCell>
        <mxCell id="PzcVlKoHmZaDmm0lflhw-120" style="edgeStyle=orthogonalEdgeStyle;rounded=0;orthogonalLoop=1;jettySize=auto;html=1;entryX=0.5;entryY=0;entryDx=0;entryDy=0;" parent="1" source="PzcVlKoHmZaDmm0lflhw-77" target="PzcVlKoHmZaDmm0lflhw-99" edge="1">
          <mxGeometry relative="1" as="geometry" />
        </mxCell>
        <mxCell id="PzcVlKoHmZaDmm0lflhw-77" value="&lt;div&gt;&lt;b&gt;SPXCafe&lt;/b&gt;&lt;/div&gt;" style="swimlane;fontStyle=0;align=center;verticalAlign=top;childLayout=stackLayout;horizontal=1;startSize=55;horizontalStack=0;resizeParent=1;resizeParentMax=0;resizeLast=0;collapsible=0;marginBottom=0;html=1;whiteSpace=wrap;" parent="1" vertex="1">
          <mxGeometry x="130" y="-150" width="140" height="163" as="geometry" />
        </mxCell>
        <mxCell id="PzcVlKoHmZaDmm0lflhw-78" value="attributes" style="text;html=1;strokeColor=none;fillColor=none;align=center;verticalAlign=middle;spacingLeft=4;spacingRight=4;overflow=hidden;rotatable=0;points=[[0,0.5],[1,0.5]];portConstraint=eastwest;whiteSpace=wrap;" parent="PzcVlKoHmZaDmm0lflhw-77" vertex="1">
          <mxGeometry y="55" width="140" height="20" as="geometry" />
        </mxCell>
        <mxCell id="PzcVlKoHmZaDmm0lflhw-79" value="__dbname" style="text;html=1;strokeColor=none;fillColor=none;align=left;verticalAlign=middle;spacingLeft=4;spacingRight=4;overflow=hidden;rotatable=0;points=[[0,0.5],[1,0.5]];portConstraint=eastwest;whiteSpace=wrap;" parent="PzcVlKoHmZaDmm0lflhw-77" vertex="1">
          <mxGeometry y="75" width="140" height="20" as="geometry" />
        </mxCell>
        <mxCell id="PzcVlKoHmZaDmm0lflhw-80" value="" style="line;strokeWidth=1;fillColor=none;align=left;verticalAlign=middle;spacingTop=-1;spacingLeft=3;spacingRight=3;rotatable=0;labelPosition=right;points=[];portConstraint=eastwest;" parent="PzcVlKoHmZaDmm0lflhw-77" vertex="1">
          <mxGeometry y="95" width="140" height="8" as="geometry" />
        </mxCell>
        <mxCell id="PzcVlKoHmZaDmm0lflhw-81" value="operations" style="text;html=1;strokeColor=none;fillColor=none;align=center;verticalAlign=middle;spacingLeft=4;spacingRight=4;overflow=hidden;rotatable=0;points=[[0,0.5],[1,0.5]];portConstraint=eastwest;whiteSpace=wrap;" parent="PzcVlKoHmZaDmm0lflhw-77" vertex="1">
          <mxGeometry y="103" width="140" height="20" as="geometry" />
        </mxCell>
        <mxCell id="PzcVlKoHmZaDmm0lflhw-82" value="__init__()" style="text;html=1;strokeColor=none;fillColor=none;align=left;verticalAlign=middle;spacingLeft=4;spacingRight=4;overflow=hidden;rotatable=0;points=[[0,0.5],[1,0.5]];portConstraint=eastwest;whiteSpace=wrap;" parent="PzcVlKoHmZaDmm0lflhw-77" vertex="1">
          <mxGeometry y="123" width="140" height="20" as="geometry" />
        </mxCell>
        <mxCell id="PzcVlKoHmZaDmm0lflhw-83" value="getToday" style="text;html=1;strokeColor=none;fillColor=none;align=left;verticalAlign=middle;spacingLeft=4;spacingRight=4;overflow=hidden;rotatable=0;points=[[0,0.5],[1,0.5]];portConstraint=eastwest;whiteSpace=wrap;" parent="PzcVlKoHmZaDmm0lflhw-77" vertex="1">
          <mxGeometry y="143" width="140" height="20" as="geometry" />
        </mxCell>
        <mxCell id="PzcVlKoHmZaDmm0lflhw-87" value="&lt;div&gt;&lt;b&gt;Course&lt;/b&gt;&lt;/div&gt;" style="swimlane;fontStyle=0;align=center;verticalAlign=top;childLayout=stackLayout;horizontal=1;startSize=55;horizontalStack=0;resizeParent=1;resizeParentMax=0;resizeLast=0;collapsible=0;marginBottom=0;html=1;whiteSpace=wrap;" parent="1" vertex="1">
          <mxGeometry x="470" y="-200" width="140" height="243" as="geometry" />
        </mxCell>
        <mxCell id="PzcVlKoHmZaDmm0lflhw-88" value="attributes" style="text;html=1;strokeColor=none;fillColor=none;align=center;verticalAlign=middle;spacingLeft=4;spacingRight=4;overflow=hidden;rotatable=0;points=[[0,0.5],[1,0.5]];portConstraint=eastwest;whiteSpace=wrap;" parent="PzcVlKoHmZaDmm0lflhw-87" vertex="1">
          <mxGeometry y="55" width="140" height="20" as="geometry" />
        </mxCell>
        <mxCell id="PzcVlKoHmZaDmm0lflhw-89" value="courseId" style="text;html=1;strokeColor=none;fillColor=none;align=left;verticalAlign=middle;spacingLeft=4;spacingRight=4;overflow=hidden;rotatable=0;points=[[0,0.5],[1,0.5]];portConstraint=eastwest;whiteSpace=wrap;" parent="PzcVlKoHmZaDmm0lflhw-87" vertex="1">
          <mxGeometry y="75" width="140" height="20" as="geometry" />
        </mxCell>
        <mxCell id="PzcVlKoHmZaDmm0lflhw-95" value="courseName" style="text;html=1;strokeColor=none;fillColor=none;align=left;verticalAlign=middle;spacingLeft=4;spacingRight=4;overflow=hidden;rotatable=0;points=[[0,0.5],[1,0.5]];portConstraint=eastwest;whiteSpace=wrap;" parent="PzcVlKoHmZaDmm0lflhw-87" vertex="1">
          <mxGeometry y="95" width="140" height="20" as="geometry" />
        </mxCell>
        <mxCell id="PzcVlKoHmZaDmm0lflhw-90" value="" style="line;strokeWidth=1;fillColor=none;align=left;verticalAlign=middle;spacingTop=-1;spacingLeft=3;spacingRight=3;rotatable=0;labelPosition=right;points=[];portConstraint=eastwest;" parent="PzcVlKoHmZaDmm0lflhw-87" vertex="1">
          <mxGeometry y="115" width="140" height="8" as="geometry" />
        </mxCell>
        <mxCell id="PzcVlKoHmZaDmm0lflhw-91" value="operations" style="text;html=1;strokeColor=none;fillColor=none;align=center;verticalAlign=middle;spacingLeft=4;spacingRight=4;overflow=hidden;rotatable=0;points=[[0,0.5],[1,0.5]];portConstraint=eastwest;whiteSpace=wrap;" parent="PzcVlKoHmZaDmm0lflhw-87" vertex="1">
          <mxGeometry y="123" width="140" height="20" as="geometry" />
        </mxCell>
        <mxCell id="PzcVlKoHmZaDmm0lflhw-92" value="&lt;span style=&quot;box-sizing: border-box; border-width: 0px; border-style: solid; border-color: hsl(var(--border)); border-image: initial; --tw-border-spacing-x: 0; --tw-border-spacing-y: 0; --tw-translate-x: 0; --tw-translate-y: 0; --tw-rotate: 0; --tw-skew-x: 0; --tw-skew-y: 0; --tw-scale-x: 1; --tw-scale-y: 1; --tw-pan-x: ; --tw-pan-y: ; --tw-pinch-zoom: ; --tw-scroll-snap-strictness: proximity; --tw-gradient-from-position: ; --tw-gradient-via-position: ; --tw-gradient-to-position: ; --tw-ordinal: ; --tw-slashed-zero: ; --tw-numeric-figure: ; --tw-numeric-spacing: ; --tw-numeric-fraction: ; --tw-ring-inset: ; --tw-ring-offset-width: 0px; --tw-ring-offset-color: #fff; --tw-ring-color: rgba(59,130,246,.5); --tw-ring-offset-shadow: 0 0 #0000; --tw-ring-shadow: 0 0 #0000; --tw-shadow: 0 0 #0000; --tw-shadow-colored: 0 0 #0000; --tw-blur: ; --tw-brightness: ; --tw-contrast: ; --tw-grayscale: ; --tw-hue-rotate: ; --tw-invert: ; --tw-saturate: ; --tw-sepia: ; --tw-drop-shadow: ; --tw-backdrop-blur: ; --tw-backdrop-brightness: ; --tw-backdrop-contrast: ; --tw-backdrop-grayscale: ; --tw-backdrop-hue-rotate: ; --tw-backdrop-invert: ; --tw-backdrop-opacity: ; --tw-backdrop-saturate: ; --tw-backdrop-sepia: ;&quot; class=&quot;token&quot;&gt;__&lt;/span&gt;&lt;span style=&quot;box-sizing: border-box; border-width: 0px; border-style: solid; border-color: hsl(var(--border)); border-image: initial; --tw-border-spacing-x: 0; --tw-border-spacing-y: 0; --tw-translate-x: 0; --tw-translate-y: 0; --tw-rotate: 0; --tw-skew-x: 0; --tw-skew-y: 0; --tw-scale-x: 1; --tw-scale-y: 1; --tw-pan-x: ; --tw-pan-y: ; --tw-pinch-zoom: ; --tw-scroll-snap-strictness: proximity; --tw-gradient-from-position: ; --tw-gradient-via-position: ; --tw-gradient-to-position: ; --tw-ordinal: ; --tw-slashed-zero: ; --tw-numeric-figure: ; --tw-numeric-spacing: ; --tw-numeric-fraction: ; --tw-ring-inset: ; --tw-ring-offset-width: 0px; --tw-ring-offset-color: #fff; --tw-ring-color: rgba(59,130,246,.5); --tw-ring-offset-shadow: 0 0 #0000; --tw-ring-shadow: 0 0 #0000; --tw-shadow: 0 0 #0000; --tw-shadow-colored: 0 0 #0000; --tw-blur: ; --tw-brightness: ; --tw-contrast: ; --tw-grayscale: ; --tw-hue-rotate: ; --tw-invert: ; --tw-saturate: ; --tw-sepia: ; --tw-drop-shadow: ; --tw-backdrop-blur: ; --tw-backdrop-brightness: ; --tw-backdrop-contrast: ; --tw-backdrop-grayscale: ; --tw-backdrop-hue-rotate: ; --tw-backdrop-invert: ; --tw-backdrop-opacity: ; --tw-backdrop-saturate: ; --tw-backdrop-sepia: ;&quot; class=&quot;token&quot;&gt;init&lt;/span&gt;&lt;span style=&quot;box-sizing: border-box; border-width: 0px; border-style: solid; border-color: hsl(var(--border)); border-image: initial; --tw-border-spacing-x: 0; --tw-border-spacing-y: 0; --tw-translate-x: 0; --tw-translate-y: 0; --tw-rotate: 0; --tw-skew-x: 0; --tw-skew-y: 0; --tw-scale-x: 1; --tw-scale-y: 1; --tw-pan-x: ; --tw-pan-y: ; --tw-pinch-zoom: ; --tw-scroll-snap-strictness: proximity; --tw-gradient-from-position: ; --tw-gradient-via-position: ; --tw-gradient-to-position: ; --tw-ordinal: ; --tw-slashed-zero: ; --tw-numeric-figure: ; --tw-numeric-spacing: ; --tw-numeric-fraction: ; --tw-ring-inset: ; --tw-ring-offset-width: 0px; --tw-ring-offset-color: #fff; --tw-ring-color: rgba(59,130,246,.5); --tw-ring-offset-shadow: 0 0 #0000; --tw-ring-shadow: 0 0 #0000; --tw-shadow: 0 0 #0000; --tw-shadow-colored: 0 0 #0000; --tw-blur: ; --tw-brightness: ; --tw-contrast: ; --tw-grayscale: ; --tw-hue-rotate: ; --tw-invert: ; --tw-saturate: ; --tw-sepia: ; --tw-drop-shadow: ; --tw-backdrop-blur: ; --tw-backdrop-brightness: ; --tw-backdrop-contrast: ; --tw-backdrop-grayscale: ; --tw-backdrop-hue-rotate: ; --tw-backdrop-invert: ; --tw-backdrop-opacity: ; --tw-backdrop-saturate: ; --tw-backdrop-sepia: ;&quot; class=&quot;token&quot;&gt;__&lt;/span&gt;&lt;span style=&quot;box-sizing: border-box; border-width: 0px; border-style: solid; border-color: hsl(var(--border)); border-image: initial; --tw-border-spacing-x: 0; --tw-border-spacing-y: 0; --tw-translate-x: 0; --tw-translate-y: 0; --tw-rotate: 0; --tw-skew-x: 0; --tw-skew-y: 0; --tw-scale-x: 1; --tw-scale-y: 1; --tw-pan-x: ; --tw-pan-y: ; --tw-pinch-zoom: ; --tw-scroll-snap-strictness: proximity; --tw-gradient-from-position: ; --tw-gradient-via-position: ; --tw-gradient-to-position: ; --tw-ordinal: ; --tw-slashed-zero: ; --tw-numeric-figure: ; --tw-numeric-spacing: ; --tw-numeric-fraction: ; --tw-ring-inset: ; --tw-ring-offset-width: 0px; --tw-ring-offset-color: #fff; --tw-ring-color: rgba(59,130,246,.5); --tw-ring-offset-shadow: 0 0 #0000; --tw-ring-shadow: 0 0 #0000; --tw-shadow: 0 0 #0000; --tw-shadow-colored: 0 0 #0000; --tw-blur: ; --tw-brightness: ; --tw-contrast: ; --tw-grayscale: ; --tw-hue-rotate: ; --tw-invert: ; --tw-saturate: ; --tw-sepia: ; --tw-drop-shadow: ; --tw-backdrop-blur: ; --tw-backdrop-brightness: ; --tw-backdrop-contrast: ; --tw-backdrop-grayscale: ; --tw-backdrop-hue-rotate: ; --tw-backdrop-invert: ; --tw-backdrop-opacity: ; --tw-backdrop-saturate: ; --tw-backdrop-sepia: ;&quot;&gt;()  &lt;/span&gt;" style="text;html=1;strokeColor=none;fillColor=none;align=left;verticalAlign=middle;spacingLeft=4;spacingRight=4;overflow=hidden;rotatable=0;points=[[0,0.5],[1,0.5]];portConstraint=eastwest;whiteSpace=wrap;" parent="PzcVlKoHmZaDmm0lflhw-87" vertex="1">
          <mxGeometry y="143" width="140" height="20" as="geometry" />
        </mxCell>
        <mxCell id="PzcVlKoHmZaDmm0lflhw-93" value="setCourseId()" style="text;html=1;strokeColor=none;fillColor=none;align=left;verticalAlign=middle;spacingLeft=4;spacingRight=4;overflow=hidden;rotatable=0;points=[[0,0.5],[1,0.5]];portConstraint=eastwest;whiteSpace=wrap;" parent="PzcVlKoHmZaDmm0lflhw-87" vertex="1">
          <mxGeometry y="163" width="140" height="20" as="geometry" />
        </mxCell>
        <mxCell id="PzcVlKoHmZaDmm0lflhw-96" value="setCoutseName()" style="text;html=1;strokeColor=none;fillColor=none;align=left;verticalAlign=middle;spacingLeft=4;spacingRight=4;overflow=hidden;rotatable=0;points=[[0,0.5],[1,0.5]];portConstraint=eastwest;whiteSpace=wrap;" parent="PzcVlKoHmZaDmm0lflhw-87" vertex="1">
          <mxGeometry y="183" width="140" height="20" as="geometry" />
        </mxCell>
        <mxCell id="PzcVlKoHmZaDmm0lflhw-97" value="getCourseId()" style="text;html=1;strokeColor=none;fillColor=none;align=left;verticalAlign=middle;spacingLeft=4;spacingRight=4;overflow=hidden;rotatable=0;points=[[0,0.5],[1,0.5]];portConstraint=eastwest;whiteSpace=wrap;" parent="PzcVlKoHmZaDmm0lflhw-87" vertex="1">
          <mxGeometry y="203" width="140" height="20" as="geometry" />
        </mxCell>
        <mxCell id="PzcVlKoHmZaDmm0lflhw-98" value="getCourseName()" style="text;html=1;strokeColor=none;fillColor=none;align=left;verticalAlign=middle;spacingLeft=4;spacingRight=4;overflow=hidden;rotatable=0;points=[[0,0.5],[1,0.5]];portConstraint=eastwest;whiteSpace=wrap;" parent="PzcVlKoHmZaDmm0lflhw-87" vertex="1">
          <mxGeometry y="223" width="140" height="20" as="geometry" />
        </mxCell>
        <mxCell id="PzcVlKoHmZaDmm0lflhw-99" value="&lt;b&gt;Database&lt;/b&gt;" style="swimlane;fontStyle=0;align=center;verticalAlign=top;childLayout=stackLayout;horizontal=1;startSize=55;horizontalStack=0;resizeParent=1;resizeParentMax=0;resizeLast=0;collapsible=0;marginBottom=0;html=1;whiteSpace=wrap;" parent="1" vertex="1">
          <mxGeometry x="40" y="-430" width="180" height="203" as="geometry" />
        </mxCell>
        <mxCell id="PzcVlKoHmZaDmm0lflhw-100" value="attributes" style="text;html=1;strokeColor=none;fillColor=none;align=center;verticalAlign=middle;spacingLeft=4;spacingRight=4;overflow=hidden;rotatable=0;points=[[0,0.5],[1,0.5]];portConstraint=eastwest;whiteSpace=wrap;" parent="PzcVlKoHmZaDmm0lflhw-99" vertex="1">
          <mxGeometry y="55" width="180" height="20" as="geometry" />
        </mxCell>
        <mxCell id="PzcVlKoHmZaDmm0lflhw-101" value="__dbname:string" style="text;html=1;strokeColor=none;fillColor=none;align=left;verticalAlign=middle;spacingLeft=4;spacingRight=4;overflow=hidden;rotatable=0;points=[[0,0.5],[1,0.5]];portConstraint=eastwest;whiteSpace=wrap;" parent="PzcVlKoHmZaDmm0lflhw-99" vertex="1">
          <mxGeometry y="75" width="180" height="20" as="geometry" />
        </mxCell>
        <mxCell id="PzcVlKoHmZaDmm0lflhw-106" value="" style="line;strokeWidth=1;fillColor=none;align=left;verticalAlign=middle;spacingTop=-1;spacingLeft=3;spacingRight=3;rotatable=0;labelPosition=right;points=[];portConstraint=eastwest;" parent="PzcVlKoHmZaDmm0lflhw-99" vertex="1">
          <mxGeometry y="95" width="180" height="8" as="geometry" />
        </mxCell>
        <mxCell id="PzcVlKoHmZaDmm0lflhw-107" value="operations" style="text;html=1;strokeColor=none;fillColor=none;align=center;verticalAlign=middle;spacingLeft=4;spacingRight=4;overflow=hidden;rotatable=0;points=[[0,0.5],[1,0.5]];portConstraint=eastwest;whiteSpace=wrap;" parent="PzcVlKoHmZaDmm0lflhw-99" vertex="1">
          <mxGeometry y="103" width="180" height="20" as="geometry" />
        </mxCell>
        <mxCell id="PzcVlKoHmZaDmm0lflhw-108" value="__init__(dbname:sting)" style="text;html=1;strokeColor=none;fillColor=none;align=left;verticalAlign=middle;spacingLeft=4;spacingRight=4;overflow=hidden;rotatable=0;points=[[0,0.5],[1,0.5]];portConstraint=eastwest;whiteSpace=wrap;" parent="PzcVlKoHmZaDmm0lflhw-99" vertex="1">
          <mxGeometry y="123" width="180" height="20" as="geometry" />
        </mxCell>
        <mxCell id="PzcVlKoHmZaDmm0lflhw-117" value="dbGetData(sql: string): list" style="text;html=1;strokeColor=none;fillColor=none;align=left;verticalAlign=middle;spacingLeft=4;spacingRight=4;overflow=hidden;rotatable=0;points=[[0,0.5],[1,0.5]];portConstraint=eastwest;whiteSpace=wrap;" parent="PzcVlKoHmZaDmm0lflhw-99" vertex="1">
          <mxGeometry y="143" width="180" height="20" as="geometry" />
        </mxCell>
        <mxCell id="PzcVlKoHmZaDmm0lflhw-109" value="dbPutData(sql: string): integer" style="text;html=1;strokeColor=none;fillColor=none;align=left;verticalAlign=middle;spacingLeft=4;spacingRight=4;overflow=hidden;rotatable=0;points=[[0,0.5],[1,0.5]];portConstraint=eastwest;whiteSpace=wrap;" parent="PzcVlKoHmZaDmm0lflhw-99" vertex="1">
          <mxGeometry y="163" width="180" height="20" as="geometry" />
        </mxCell>
        <mxCell id="PzcVlKoHmZaDmm0lflhw-110" value="dbChangeData(sql: string): void" style="text;html=1;strokeColor=none;fillColor=none;align=left;verticalAlign=middle;spacingLeft=4;spacingRight=4;overflow=hidden;rotatable=0;points=[[0,0.5],[1,0.5]];portConstraint=eastwest;whiteSpace=wrap;" parent="PzcVlKoHmZaDmm0lflhw-99" vertex="1">
          <mxGeometry y="183" width="180" height="20" as="geometry" />
        </mxCell>
        <mxCell id="SGoPQsvxU46vvDtd17dG-44" style="edgeStyle=orthogonalEdgeStyle;rounded=0;orthogonalLoop=1;jettySize=auto;html=1;entryX=0.5;entryY=0;entryDx=0;entryDy=0;" edge="1" parent="1" source="PzcVlKoHmZaDmm0lflhw-121" target="SGoPQsvxU46vvDtd17dG-15">
          <mxGeometry relative="1" as="geometry">
            <Array as="points">
              <mxPoint y="-720" />
              <mxPoint x="780" y="-720" />
            </Array>
          </mxGeometry>
        </mxCell>
        <mxCell id="PzcVlKoHmZaDmm0lflhw-121" value="&lt;b&gt;Order&lt;/b&gt;" style="swimlane;fontStyle=0;align=center;verticalAlign=top;childLayout=stackLayout;horizontal=1;startSize=55;horizontalStack=0;resizeParent=1;resizeParentMax=0;resizeLast=0;collapsible=0;marginBottom=0;html=1;whiteSpace=wrap;" parent="1" vertex="1">
          <mxGeometry x="-40" y="70" width="170" height="670" as="geometry" />
        </mxCell>
        <mxCell id="PzcVlKoHmZaDmm0lflhw-122" value="attributes" style="text;html=1;strokeColor=none;fillColor=none;align=center;verticalAlign=middle;spacingLeft=4;spacingRight=4;overflow=hidden;rotatable=0;points=[[0,0.5],[1,0.5]];portConstraint=eastwest;whiteSpace=wrap;" parent="PzcVlKoHmZaDmm0lflhw-121" vertex="1">
          <mxGeometry y="55" width="170" height="20" as="geometry" />
        </mxCell>
        <mxCell id="PzcVlKoHmZaDmm0lflhw-123" value="__orderId: integer" style="text;html=1;strokeColor=none;fillColor=none;align=left;verticalAlign=middle;spacingLeft=4;spacingRight=4;overflow=hidden;rotatable=0;points=[[0,0.5],[1,0.5]];portConstraint=eastwest;whiteSpace=wrap;" parent="PzcVlKoHmZaDmm0lflhw-121" vertex="1">
          <mxGeometry y="75" width="170" height="20" as="geometry" />
        </mxCell>
        <mxCell id="PzcVlKoHmZaDmm0lflhw-124" value="__orderDate: string" style="text;html=1;strokeColor=none;fillColor=none;align=left;verticalAlign=middle;spacingLeft=4;spacingRight=4;overflow=hidden;rotatable=0;points=[[0,0.5],[1,0.5]];portConstraint=eastwest;whiteSpace=wrap;" parent="PzcVlKoHmZaDmm0lflhw-121" vertex="1">
          <mxGeometry y="95" width="170" height="20" as="geometry" />
        </mxCell>
        <mxCell id="PzcVlKoHmZaDmm0lflhw-125" value="__customer: Customer" style="text;html=1;strokeColor=none;fillColor=none;align=left;verticalAlign=middle;spacingLeft=4;spacingRight=4;overflow=hidden;rotatable=0;points=[[0,0.5],[1,0.5]];portConstraint=eastwest;whiteSpace=wrap;" parent="PzcVlKoHmZaDmm0lflhw-121" vertex="1">
          <mxGeometry y="115" width="170" height="20" as="geometry" />
        </mxCell>
        <mxCell id="PzcVlKoHmZaDmm0lflhw-126" value="__orderItems: list" style="text;html=1;strokeColor=none;fillColor=none;align=left;verticalAlign=middle;spacingLeft=4;spacingRight=4;overflow=hidden;rotatable=0;points=[[0,0.5],[1,0.5]];portConstraint=eastwest;whiteSpace=wrap;" parent="PzcVlKoHmZaDmm0lflhw-121" vertex="1">
          <mxGeometry y="135" width="170" height="20" as="geometry" />
        </mxCell>
        <mxCell id="PzcVlKoHmZaDmm0lflhw-128" value="" style="line;strokeWidth=1;fillColor=none;align=left;verticalAlign=middle;spacingTop=-1;spacingLeft=3;spacingRight=3;rotatable=0;labelPosition=right;points=[];portConstraint=eastwest;" parent="PzcVlKoHmZaDmm0lflhw-121" vertex="1">
          <mxGeometry y="155" width="170" height="8" as="geometry" />
        </mxCell>
        <mxCell id="PzcVlKoHmZaDmm0lflhw-129" value="operations" style="text;html=1;strokeColor=none;fillColor=none;align=center;verticalAlign=middle;spacingLeft=4;spacingRight=4;overflow=hidden;rotatable=0;points=[[0,0.5],[1,0.5]];portConstraint=eastwest;whiteSpace=wrap;" parent="PzcVlKoHmZaDmm0lflhw-121" vertex="1">
          <mxGeometry y="163" width="170" height="20" as="geometry" />
        </mxCell>
        <mxCell id="PzcVlKoHmZaDmm0lflhw-130" value="&lt;span style=&quot;box-sizing: border-box; border-width: 0px; border-style: solid; border-color: hsl(var(--border)); border-image: initial; --tw-border-spacing-x: 0; --tw-border-spacing-y: 0; --tw-translate-x: 0; --tw-translate-y: 0; --tw-rotate: 0; --tw-skew-x: 0; --tw-skew-y: 0; --tw-scale-x: 1; --tw-scale-y: 1; --tw-pan-x: ; --tw-pan-y: ; --tw-pinch-zoom: ; --tw-scroll-snap-strictness: proximity; --tw-gradient-from-position: ; --tw-gradient-via-position: ; --tw-gradient-to-position: ; --tw-ordinal: ; --tw-slashed-zero: ; --tw-numeric-figure: ; --tw-numeric-spacing: ; --tw-numeric-fraction: ; --tw-ring-inset: ; --tw-ring-offset-width: 0px; --tw-ring-offset-color: #fff; --tw-ring-color: rgba(59,130,246,.5); --tw-ring-offset-shadow: 0 0 #0000; --tw-ring-shadow: 0 0 #0000; --tw-shadow: 0 0 #0000; --tw-shadow-colored: 0 0 #0000; --tw-blur: ; --tw-brightness: ; --tw-contrast: ; --tw-grayscale: ; --tw-hue-rotate: ; --tw-invert: ; --tw-saturate: ; --tw-sepia: ; --tw-drop-shadow: ; --tw-backdrop-blur: ; --tw-backdrop-brightness: ; --tw-backdrop-contrast: ; --tw-backdrop-grayscale: ; --tw-backdrop-hue-rotate: ; --tw-backdrop-invert: ; --tw-backdrop-opacity: ; --tw-backdrop-saturate: ; --tw-backdrop-sepia: ;&quot; class=&quot;token&quot;&gt;__&lt;/span&gt;&lt;span style=&quot;box-sizing: border-box; border-width: 0px; border-style: solid; border-color: hsl(var(--border)); border-image: initial; --tw-border-spacing-x: 0; --tw-border-spacing-y: 0; --tw-translate-x: 0; --tw-translate-y: 0; --tw-rotate: 0; --tw-skew-x: 0; --tw-skew-y: 0; --tw-scale-x: 1; --tw-scale-y: 1; --tw-pan-x: ; --tw-pan-y: ; --tw-pinch-zoom: ; --tw-scroll-snap-strictness: proximity; --tw-gradient-from-position: ; --tw-gradient-via-position: ; --tw-gradient-to-position: ; --tw-ordinal: ; --tw-slashed-zero: ; --tw-numeric-figure: ; --tw-numeric-spacing: ; --tw-numeric-fraction: ; --tw-ring-inset: ; --tw-ring-offset-width: 0px; --tw-ring-offset-color: #fff; --tw-ring-color: rgba(59,130,246,.5); --tw-ring-offset-shadow: 0 0 #0000; --tw-ring-shadow: 0 0 #0000; --tw-shadow: 0 0 #0000; --tw-shadow-colored: 0 0 #0000; --tw-blur: ; --tw-brightness: ; --tw-contrast: ; --tw-grayscale: ; --tw-hue-rotate: ; --tw-invert: ; --tw-saturate: ; --tw-sepia: ; --tw-drop-shadow: ; --tw-backdrop-blur: ; --tw-backdrop-brightness: ; --tw-backdrop-contrast: ; --tw-backdrop-grayscale: ; --tw-backdrop-hue-rotate: ; --tw-backdrop-invert: ; --tw-backdrop-opacity: ; --tw-backdrop-saturate: ; --tw-backdrop-sepia: ;&quot; class=&quot;token&quot;&gt;init&lt;/span&gt;&lt;span style=&quot;box-sizing: border-box; border-width: 0px; border-style: solid; border-color: hsl(var(--border)); border-image: initial; --tw-border-spacing-x: 0; --tw-border-spacing-y: 0; --tw-translate-x: 0; --tw-translate-y: 0; --tw-rotate: 0; --tw-skew-x: 0; --tw-skew-y: 0; --tw-scale-x: 1; --tw-scale-y: 1; --tw-pan-x: ; --tw-pan-y: ; --tw-pinch-zoom: ; --tw-scroll-snap-strictness: proximity; --tw-gradient-from-position: ; --tw-gradient-via-position: ; --tw-gradient-to-position: ; --tw-ordinal: ; --tw-slashed-zero: ; --tw-numeric-figure: ; --tw-numeric-spacing: ; --tw-numeric-fraction: ; --tw-ring-inset: ; --tw-ring-offset-width: 0px; --tw-ring-offset-color: #fff; --tw-ring-color: rgba(59,130,246,.5); --tw-ring-offset-shadow: 0 0 #0000; --tw-ring-shadow: 0 0 #0000; --tw-shadow: 0 0 #0000; --tw-shadow-colored: 0 0 #0000; --tw-blur: ; --tw-brightness: ; --tw-contrast: ; --tw-grayscale: ; --tw-hue-rotate: ; --tw-invert: ; --tw-saturate: ; --tw-sepia: ; --tw-drop-shadow: ; --tw-backdrop-blur: ; --tw-backdrop-brightness: ; --tw-backdrop-contrast: ; --tw-backdrop-grayscale: ; --tw-backdrop-hue-rotate: ; --tw-backdrop-invert: ; --tw-backdrop-opacity: ; --tw-backdrop-saturate: ; --tw-backdrop-sepia: ;&quot; class=&quot;token&quot;&gt;__&lt;/span&gt;&lt;span style=&quot;box-sizing: border-box; border-width: 0px; border-style: solid; border-color: hsl(var(--border)); border-image: initial; --tw-border-spacing-x: 0; --tw-border-spacing-y: 0; --tw-translate-x: 0; --tw-translate-y: 0; --tw-rotate: 0; --tw-skew-x: 0; --tw-skew-y: 0; --tw-scale-x: 1; --tw-scale-y: 1; --tw-pan-x: ; --tw-pan-y: ; --tw-pinch-zoom: ; --tw-scroll-snap-strictness: proximity; --tw-gradient-from-position: ; --tw-gradient-via-position: ; --tw-gradient-to-position: ; --tw-ordinal: ; --tw-slashed-zero: ; --tw-numeric-figure: ; --tw-numeric-spacing: ; --tw-numeric-fraction: ; --tw-ring-inset: ; --tw-ring-offset-width: 0px; --tw-ring-offset-color: #fff; --tw-ring-color: rgba(59,130,246,.5); --tw-ring-offset-shadow: 0 0 #0000; --tw-ring-shadow: 0 0 #0000; --tw-shadow: 0 0 #0000; --tw-shadow-colored: 0 0 #0000; --tw-blur: ; --tw-brightness: ; --tw-contrast: ; --tw-grayscale: ; --tw-hue-rotate: ; --tw-invert: ; --tw-saturate: ; --tw-sepia: ; --tw-drop-shadow: ; --tw-backdrop-blur: ; --tw-backdrop-brightness: ; --tw-backdrop-contrast: ; --tw-backdrop-grayscale: ; --tw-backdrop-hue-rotate: ; --tw-backdrop-invert: ; --tw-backdrop-opacity: ; --tw-backdrop-saturate: ; --tw-backdrop-sepia: ;&quot;&gt;(orderId: integer, orderDate: string, customer: Customer)&lt;/span&gt;" style="text;html=1;strokeColor=none;fillColor=none;align=left;verticalAlign=middle;spacingLeft=4;spacingRight=4;overflow=hidden;rotatable=0;points=[[0,0.5],[1,0.5]];portConstraint=eastwest;whiteSpace=wrap;" parent="PzcVlKoHmZaDmm0lflhw-121" vertex="1">
          <mxGeometry y="183" width="170" height="67" as="geometry" />
        </mxCell>
        <mxCell id="PzcVlKoHmZaDmm0lflhw-131" value="existsDB(): boolean" style="text;html=1;strokeColor=none;fillColor=none;align=left;verticalAlign=middle;spacingLeft=4;spacingRight=4;overflow=hidden;rotatable=0;points=[[0,0.5],[1,0.5]];portConstraint=eastwest;whiteSpace=wrap;" parent="PzcVlKoHmZaDmm0lflhw-121" vertex="1">
          <mxGeometry y="250" width="170" height="20" as="geometry" />
        </mxCell>
        <mxCell id="PzcVlKoHmZaDmm0lflhw-132" value="setOrder(orderId: integer): boolean" style="text;html=1;strokeColor=none;fillColor=none;align=left;verticalAlign=middle;spacingLeft=4;spacingRight=4;overflow=hidden;rotatable=0;points=[[0,0.5],[1,0.5]];portConstraint=eastwest;whiteSpace=wrap;" parent="PzcVlKoHmZaDmm0lflhw-121" vertex="1">
          <mxGeometry y="270" width="170" height="30" as="geometry" />
        </mxCell>
        <mxCell id="PzcVlKoHmZaDmm0lflhw-133" value="save(): boolean " style="text;html=1;strokeColor=none;fillColor=none;align=left;verticalAlign=middle;spacingLeft=4;spacingRight=4;overflow=hidden;rotatable=0;points=[[0,0.5],[1,0.5]];portConstraint=eastwest;whiteSpace=wrap;" parent="PzcVlKoHmZaDmm0lflhw-121" vertex="1">
          <mxGeometry y="300" width="170" height="20" as="geometry" />
        </mxCell>
        <mxCell id="PzcVlKoHmZaDmm0lflhw-134" value="takeOrder()" style="text;html=1;strokeColor=none;fillColor=none;align=left;verticalAlign=middle;spacingLeft=4;spacingRight=4;overflow=hidden;rotatable=0;points=[[0,0.5],[1,0.5]];portConstraint=eastwest;whiteSpace=wrap;" parent="PzcVlKoHmZaDmm0lflhw-121" vertex="1">
          <mxGeometry y="320" width="170" height="20" as="geometry" />
        </mxCell>
        <mxCell id="PzcVlKoHmZaDmm0lflhw-135" value="display(): void" style="text;html=1;strokeColor=none;fillColor=none;align=left;verticalAlign=middle;spacingLeft=4;spacingRight=4;overflow=hidden;rotatable=0;points=[[0,0.5],[1,0.5]];portConstraint=eastwest;whiteSpace=wrap;" parent="PzcVlKoHmZaDmm0lflhw-121" vertex="1">
          <mxGeometry y="340" width="170" height="20" as="geometry" />
        </mxCell>
        <mxCell id="PzcVlKoHmZaDmm0lflhw-136" value="getOrders(customer: Customer): list" style="text;html=1;strokeColor=none;fillColor=none;align=left;verticalAlign=middle;spacingLeft=4;spacingRight=4;overflow=hidden;rotatable=0;points=[[0,0.5],[1,0.5]];portConstraint=eastwest;whiteSpace=wrap;" parent="PzcVlKoHmZaDmm0lflhw-121" vertex="1">
          <mxGeometry y="360" width="170" height="30" as="geometry" />
        </mxCell>
        <mxCell id="PzcVlKoHmZaDmm0lflhw-137" value="getOrderId(): integer" style="text;html=1;strokeColor=none;fillColor=none;align=left;verticalAlign=middle;spacingLeft=4;spacingRight=4;overflow=hidden;rotatable=0;points=[[0,0.5],[1,0.5]];portConstraint=eastwest;whiteSpace=wrap;" parent="PzcVlKoHmZaDmm0lflhw-121" vertex="1">
          <mxGeometry y="390" width="170" height="20" as="geometry" />
        </mxCell>
        <mxCell id="PzcVlKoHmZaDmm0lflhw-139" value="getCustomer(): Customer" style="text;html=1;strokeColor=none;fillColor=none;align=left;verticalAlign=middle;spacingLeft=4;spacingRight=4;overflow=hidden;rotatable=0;points=[[0,0.5],[1,0.5]];portConstraint=eastwest;whiteSpace=wrap;" parent="PzcVlKoHmZaDmm0lflhw-121" vertex="1">
          <mxGeometry y="410" width="170" height="20" as="geometry" />
        </mxCell>
        <mxCell id="PzcVlKoHmZaDmm0lflhw-140" value="getOrderDate(): string" style="text;html=1;strokeColor=none;fillColor=none;align=left;verticalAlign=middle;spacingLeft=4;spacingRight=4;overflow=hidden;rotatable=0;points=[[0,0.5],[1,0.5]];portConstraint=eastwest;whiteSpace=wrap;" parent="PzcVlKoHmZaDmm0lflhw-121" vertex="1">
          <mxGeometry y="430" width="170" height="20" as="geometry" />
        </mxCell>
        <mxCell id="PzcVlKoHmZaDmm0lflhw-141" value="getOrderItems(): list" style="text;html=1;strokeColor=none;fillColor=none;align=left;verticalAlign=middle;spacingLeft=4;spacingRight=4;overflow=hidden;rotatable=0;points=[[0,0.5],[1,0.5]];portConstraint=eastwest;whiteSpace=wrap;" parent="PzcVlKoHmZaDmm0lflhw-121" vertex="1">
          <mxGeometry y="450" width="170" height="20" as="geometry" />
        </mxCell>
        <mxCell id="PzcVlKoHmZaDmm0lflhw-142" value="getOrderTotal(): float" style="text;html=1;strokeColor=none;fillColor=none;align=left;verticalAlign=middle;spacingLeft=4;spacingRight=4;overflow=hidden;rotatable=0;points=[[0,0.5],[1,0.5]];portConstraint=eastwest;whiteSpace=wrap;" parent="PzcVlKoHmZaDmm0lflhw-121" vertex="1">
          <mxGeometry y="470" width="170" height="20" as="geometry" />
        </mxCell>
        <mxCell id="PzcVlKoHmZaDmm0lflhw-143" value="setOrderId(orderId: integer): void" style="text;html=1;strokeColor=none;fillColor=none;align=left;verticalAlign=middle;spacingLeft=4;spacingRight=4;overflow=hidden;rotatable=0;points=[[0,0.5],[1,0.5]];portConstraint=eastwest;whiteSpace=wrap;" parent="PzcVlKoHmZaDmm0lflhw-121" vertex="1">
          <mxGeometry y="490" width="170" height="30" as="geometry" />
        </mxCell>
        <mxCell id="PzcVlKoHmZaDmm0lflhw-144" value="setCustomer(customer: Customer): void" style="text;html=1;strokeColor=none;fillColor=none;align=left;verticalAlign=middle;spacingLeft=4;spacingRight=4;overflow=hidden;rotatable=0;points=[[0,0.5],[1,0.5]];portConstraint=eastwest;whiteSpace=wrap;" parent="PzcVlKoHmZaDmm0lflhw-121" vertex="1">
          <mxGeometry y="520" width="170" height="30" as="geometry" />
        </mxCell>
        <mxCell id="PzcVlKoHmZaDmm0lflhw-145" value=" setOrderDate(orderDate: string): void" style="text;html=1;strokeColor=none;fillColor=none;align=left;verticalAlign=middle;spacingLeft=4;spacingRight=4;overflow=hidden;rotatable=0;points=[[0,0.5],[1,0.5]];portConstraint=eastwest;whiteSpace=wrap;" parent="PzcVlKoHmZaDmm0lflhw-121" vertex="1">
          <mxGeometry y="550" width="170" height="30" as="geometry" />
        </mxCell>
        <mxCell id="PzcVlKoHmZaDmm0lflhw-146" value="setOrderItems(orderItems: list): void" style="text;html=1;strokeColor=none;fillColor=none;align=left;verticalAlign=middle;spacingLeft=4;spacingRight=4;overflow=hidden;rotatable=0;points=[[0,0.5],[1,0.5]];portConstraint=eastwest;whiteSpace=wrap;" parent="PzcVlKoHmZaDmm0lflhw-121" vertex="1">
          <mxGeometry y="580" width="170" height="30" as="geometry" />
        </mxCell>
        <mxCell id="PzcVlKoHmZaDmm0lflhw-147" value="addBasket(basket: Basket): void" style="text;html=1;strokeColor=none;fillColor=none;align=left;verticalAlign=middle;spacingLeft=4;spacingRight=4;overflow=hidden;rotatable=0;points=[[0,0.5],[1,0.5]];portConstraint=eastwest;whiteSpace=wrap;" parent="PzcVlKoHmZaDmm0lflhw-121" vertex="1">
          <mxGeometry y="610" width="170" height="30" as="geometry" />
        </mxCell>
        <mxCell id="PzcVlKoHmZaDmm0lflhw-148" value="addOrderItem(basketItem: BasketItem): void" style="text;html=1;strokeColor=none;fillColor=none;align=left;verticalAlign=middle;spacingLeft=4;spacingRight=4;overflow=hidden;rotatable=0;points=[[0,0.5],[1,0.5]];portConstraint=eastwest;whiteSpace=wrap;" parent="PzcVlKoHmZaDmm0lflhw-121" vertex="1">
          <mxGeometry y="640" width="170" height="30" as="geometry" />
        </mxCell>
        <mxCell id="PzcVlKoHmZaDmm0lflhw-149" style="edgeStyle=orthogonalEdgeStyle;rounded=0;orthogonalLoop=1;jettySize=auto;html=1;entryX=0.421;entryY=0.959;entryDx=0;entryDy=0;entryPerimeter=0;" parent="1" source="PzcVlKoHmZaDmm0lflhw-122" target="PzcVlKoHmZaDmm0lflhw-83" edge="1">
          <mxGeometry relative="1" as="geometry" />
        </mxCell>
        <mxCell id="PzcVlKoHmZaDmm0lflhw-177" style="edgeStyle=orthogonalEdgeStyle;rounded=0;orthogonalLoop=1;jettySize=auto;html=1;entryX=-0.007;entryY=0.096;entryDx=0;entryDy=0;entryPerimeter=0;" parent="1" source="PzcVlKoHmZaDmm0lflhw-25" target="PzcVlKoHmZaDmm0lflhw-141" edge="1">
          <mxGeometry relative="1" as="geometry" />
        </mxCell>
        <mxCell id="PzcVlKoHmZaDmm0lflhw-180" value="&lt;b&gt;menu&lt;/b&gt;" style="swimlane;fontStyle=0;align=center;verticalAlign=top;childLayout=stackLayout;horizontal=1;startSize=55;horizontalStack=0;resizeParent=1;resizeParentMax=0;resizeLast=0;collapsible=0;marginBottom=0;html=1;whiteSpace=wrap;" parent="1" vertex="1">
          <mxGeometry x="390" y="110" width="200" height="440" as="geometry" />
        </mxCell>
        <mxCell id="PzcVlKoHmZaDmm0lflhw-181" value="attributes" style="text;html=1;strokeColor=none;fillColor=none;align=center;verticalAlign=middle;spacingLeft=4;spacingRight=4;overflow=hidden;rotatable=0;points=[[0,0.5],[1,0.5]];portConstraint=eastwest;whiteSpace=wrap;" parent="PzcVlKoHmZaDmm0lflhw-180" vertex="1">
          <mxGeometry y="55" width="200" height="20" as="geometry" />
        </mxCell>
        <mxCell id="PzcVlKoHmZaDmm0lflhw-182" value="__db: Database     " style="text;html=1;strokeColor=none;fillColor=none;align=left;verticalAlign=middle;spacingLeft=4;spacingRight=4;overflow=hidden;rotatable=0;points=[[0,0.5],[1,0.5]];portConstraint=eastwest;whiteSpace=wrap;" parent="PzcVlKoHmZaDmm0lflhw-180" vertex="1">
          <mxGeometry y="75" width="200" height="20" as="geometry" />
        </mxCell>
        <mxCell id="PzcVlKoHmZaDmm0lflhw-183" value="courses: list   " style="text;html=1;strokeColor=none;fillColor=none;align=left;verticalAlign=middle;spacingLeft=4;spacingRight=4;overflow=hidden;rotatable=0;points=[[0,0.5],[1,0.5]];portConstraint=eastwest;whiteSpace=wrap;" parent="PzcVlKoHmZaDmm0lflhw-180" vertex="1">
          <mxGeometry y="95" width="200" height="20" as="geometry" />
        </mxCell>
        <mxCell id="PzcVlKoHmZaDmm0lflhw-184" value="meals: dict  " style="text;html=1;strokeColor=none;fillColor=none;align=left;verticalAlign=middle;spacingLeft=4;spacingRight=4;overflow=hidden;rotatable=0;points=[[0,0.5],[1,0.5]];portConstraint=eastwest;whiteSpace=wrap;" parent="PzcVlKoHmZaDmm0lflhw-180" vertex="1">
          <mxGeometry y="115" width="200" height="20" as="geometry" />
        </mxCell>
        <mxCell id="PzcVlKoHmZaDmm0lflhw-187" value="" style="line;strokeWidth=1;fillColor=none;align=left;verticalAlign=middle;spacingTop=-1;spacingLeft=3;spacingRight=3;rotatable=0;labelPosition=right;points=[];portConstraint=eastwest;" parent="PzcVlKoHmZaDmm0lflhw-180" vertex="1">
          <mxGeometry y="135" width="200" height="8" as="geometry" />
        </mxCell>
        <mxCell id="PzcVlKoHmZaDmm0lflhw-188" value="operations" style="text;html=1;strokeColor=none;fillColor=none;align=center;verticalAlign=middle;spacingLeft=4;spacingRight=4;overflow=hidden;rotatable=0;points=[[0,0.5],[1,0.5]];portConstraint=eastwest;whiteSpace=wrap;" parent="PzcVlKoHmZaDmm0lflhw-180" vertex="1">
          <mxGeometry y="143" width="200" height="20" as="geometry" />
        </mxCell>
        <mxCell id="PzcVlKoHmZaDmm0lflhw-189" value="&lt;span style=&quot;box-sizing: border-box; border-width: 0px; border-style: solid; border-color: hsl(var(--border)); border-image: initial; --tw-border-spacing-x: 0; --tw-border-spacing-y: 0; --tw-translate-x: 0; --tw-translate-y: 0; --tw-rotate: 0; --tw-skew-x: 0; --tw-skew-y: 0; --tw-scale-x: 1; --tw-scale-y: 1; --tw-pan-x: ; --tw-pan-y: ; --tw-pinch-zoom: ; --tw-scroll-snap-strictness: proximity; --tw-gradient-from-position: ; --tw-gradient-via-position: ; --tw-gradient-to-position: ; --tw-ordinal: ; --tw-slashed-zero: ; --tw-numeric-figure: ; --tw-numeric-spacing: ; --tw-numeric-fraction: ; --tw-ring-inset: ; --tw-ring-offset-width: 0px; --tw-ring-offset-color: #fff; --tw-ring-color: rgba(59,130,246,.5); --tw-ring-offset-shadow: 0 0 #0000; --tw-ring-shadow: 0 0 #0000; --tw-shadow: 0 0 #0000; --tw-shadow-colored: 0 0 #0000; --tw-blur: ; --tw-brightness: ; --tw-contrast: ; --tw-grayscale: ; --tw-hue-rotate: ; --tw-invert: ; --tw-saturate: ; --tw-sepia: ; --tw-drop-shadow: ; --tw-backdrop-blur: ; --tw-backdrop-brightness: ; --tw-backdrop-contrast: ; --tw-backdrop-grayscale: ; --tw-backdrop-hue-rotate: ; --tw-backdrop-invert: ; --tw-backdrop-opacity: ; --tw-backdrop-saturate: ; --tw-backdrop-sepia: ;&quot; class=&quot;token&quot;&gt;__&lt;/span&gt;&lt;span style=&quot;box-sizing: border-box; border-width: 0px; border-style: solid; border-color: hsl(var(--border)); border-image: initial; --tw-border-spacing-x: 0; --tw-border-spacing-y: 0; --tw-translate-x: 0; --tw-translate-y: 0; --tw-rotate: 0; --tw-skew-x: 0; --tw-skew-y: 0; --tw-scale-x: 1; --tw-scale-y: 1; --tw-pan-x: ; --tw-pan-y: ; --tw-pinch-zoom: ; --tw-scroll-snap-strictness: proximity; --tw-gradient-from-position: ; --tw-gradient-via-position: ; --tw-gradient-to-position: ; --tw-ordinal: ; --tw-slashed-zero: ; --tw-numeric-figure: ; --tw-numeric-spacing: ; --tw-numeric-fraction: ; --tw-ring-inset: ; --tw-ring-offset-width: 0px; --tw-ring-offset-color: #fff; --tw-ring-color: rgba(59,130,246,.5); --tw-ring-offset-shadow: 0 0 #0000; --tw-ring-shadow: 0 0 #0000; --tw-shadow: 0 0 #0000; --tw-shadow-colored: 0 0 #0000; --tw-blur: ; --tw-brightness: ; --tw-contrast: ; --tw-grayscale: ; --tw-hue-rotate: ; --tw-invert: ; --tw-saturate: ; --tw-sepia: ; --tw-drop-shadow: ; --tw-backdrop-blur: ; --tw-backdrop-brightness: ; --tw-backdrop-contrast: ; --tw-backdrop-grayscale: ; --tw-backdrop-hue-rotate: ; --tw-backdrop-invert: ; --tw-backdrop-opacity: ; --tw-backdrop-saturate: ; --tw-backdrop-sepia: ;&quot; class=&quot;token&quot;&gt;init&lt;/span&gt;&lt;span style=&quot;box-sizing: border-box; border-width: 0px; border-style: solid; border-color: hsl(var(--border)); border-image: initial; --tw-border-spacing-x: 0; --tw-border-spacing-y: 0; --tw-translate-x: 0; --tw-translate-y: 0; --tw-rotate: 0; --tw-skew-x: 0; --tw-skew-y: 0; --tw-scale-x: 1; --tw-scale-y: 1; --tw-pan-x: ; --tw-pan-y: ; --tw-pinch-zoom: ; --tw-scroll-snap-strictness: proximity; --tw-gradient-from-position: ; --tw-gradient-via-position: ; --tw-gradient-to-position: ; --tw-ordinal: ; --tw-slashed-zero: ; --tw-numeric-figure: ; --tw-numeric-spacing: ; --tw-numeric-fraction: ; --tw-ring-inset: ; --tw-ring-offset-width: 0px; --tw-ring-offset-color: #fff; --tw-ring-color: rgba(59,130,246,.5); --tw-ring-offset-shadow: 0 0 #0000; --tw-ring-shadow: 0 0 #0000; --tw-shadow: 0 0 #0000; --tw-shadow-colored: 0 0 #0000; --tw-blur: ; --tw-brightness: ; --tw-contrast: ; --tw-grayscale: ; --tw-hue-rotate: ; --tw-invert: ; --tw-saturate: ; --tw-sepia: ; --tw-drop-shadow: ; --tw-backdrop-blur: ; --tw-backdrop-brightness: ; --tw-backdrop-contrast: ; --tw-backdrop-grayscale: ; --tw-backdrop-hue-rotate: ; --tw-backdrop-invert: ; --tw-backdrop-opacity: ; --tw-backdrop-saturate: ; --tw-backdrop-sepia: ;&quot; class=&quot;token&quot;&gt;__&lt;/span&gt;&lt;span style=&quot;box-sizing: border-box; border-width: 0px; border-style: solid; border-color: hsl(var(--border)); border-image: initial; --tw-border-spacing-x: 0; --tw-border-spacing-y: 0; --tw-translate-x: 0; --tw-translate-y: 0; --tw-rotate: 0; --tw-skew-x: 0; --tw-skew-y: 0; --tw-scale-x: 1; --tw-scale-y: 1; --tw-pan-x: ; --tw-pan-y: ; --tw-pinch-zoom: ; --tw-scroll-snap-strictness: proximity; --tw-gradient-from-position: ; --tw-gradient-via-position: ; --tw-gradient-to-position: ; --tw-ordinal: ; --tw-slashed-zero: ; --tw-numeric-figure: ; --tw-numeric-spacing: ; --tw-numeric-fraction: ; --tw-ring-inset: ; --tw-ring-offset-width: 0px; --tw-ring-offset-color: #fff; --tw-ring-color: rgba(59,130,246,.5); --tw-ring-offset-shadow: 0 0 #0000; --tw-ring-shadow: 0 0 #0000; --tw-shadow: 0 0 #0000; --tw-shadow-colored: 0 0 #0000; --tw-blur: ; --tw-brightness: ; --tw-contrast: ; --tw-grayscale: ; --tw-hue-rotate: ; --tw-invert: ; --tw-saturate: ; --tw-sepia: ; --tw-drop-shadow: ; --tw-backdrop-blur: ; --tw-backdrop-brightness: ; --tw-backdrop-contrast: ; --tw-backdrop-grayscale: ; --tw-backdrop-hue-rotate: ; --tw-backdrop-invert: ; --tw-backdrop-opacity: ; --tw-backdrop-saturate: ; --tw-backdrop-sepia: ;&quot;&gt;()&lt;/span&gt;" style="text;html=1;strokeColor=none;fillColor=none;align=left;verticalAlign=middle;spacingLeft=4;spacingRight=4;overflow=hidden;rotatable=0;points=[[0,0.5],[1,0.5]];portConstraint=eastwest;whiteSpace=wrap;" parent="PzcVlKoHmZaDmm0lflhw-180" vertex="1">
          <mxGeometry y="163" width="200" height="20" as="geometry" />
        </mxCell>
        <mxCell id="PzcVlKoHmZaDmm0lflhw-190" value="getCourses(): list" style="text;html=1;strokeColor=none;fillColor=none;align=left;verticalAlign=middle;spacingLeft=4;spacingRight=4;overflow=hidden;rotatable=0;points=[[0,0.5],[1,0.5]];portConstraint=eastwest;whiteSpace=wrap;" parent="PzcVlKoHmZaDmm0lflhw-180" vertex="1">
          <mxGeometry y="183" width="200" height="20" as="geometry" />
        </mxCell>
        <mxCell id="PzcVlKoHmZaDmm0lflhw-191" value="showCourses()" style="text;html=1;strokeColor=none;fillColor=none;align=left;verticalAlign=middle;spacingLeft=4;spacingRight=4;overflow=hidden;rotatable=0;points=[[0,0.5],[1,0.5]];portConstraint=eastwest;whiteSpace=wrap;" parent="PzcVlKoHmZaDmm0lflhw-180" vertex="1">
          <mxGeometry y="203" width="200" height="20" as="geometry" />
        </mxCell>
        <mxCell id="PzcVlKoHmZaDmm0lflhw-192" value="getMealsForCourse(courseName: str): dict" style="text;html=1;strokeColor=none;fillColor=none;align=left;verticalAlign=middle;spacingLeft=4;spacingRight=4;overflow=hidden;rotatable=0;points=[[0,0.5],[1,0.5]];portConstraint=eastwest;whiteSpace=wrap;" parent="PzcVlKoHmZaDmm0lflhw-180" vertex="1">
          <mxGeometry y="223" width="200" height="37" as="geometry" />
        </mxCell>
        <mxCell id="PzcVlKoHmZaDmm0lflhw-193" value="getMealByName(meal_name: str): Meal" style="text;html=1;strokeColor=none;fillColor=none;align=left;verticalAlign=middle;spacingLeft=4;spacingRight=4;overflow=hidden;rotatable=0;points=[[0,0.5],[1,0.5]];portConstraint=eastwest;whiteSpace=wrap;" parent="PzcVlKoHmZaDmm0lflhw-180" vertex="1">
          <mxGeometry y="260" width="200" height="30" as="geometry" />
        </mxCell>
        <mxCell id="PzcVlKoHmZaDmm0lflhw-194" value="findMeal(searchMeal: str)" style="text;html=1;strokeColor=none;fillColor=none;align=left;verticalAlign=middle;spacingLeft=4;spacingRight=4;overflow=hidden;rotatable=0;points=[[0,0.5],[1,0.5]];portConstraint=eastwest;whiteSpace=wrap;" parent="PzcVlKoHmZaDmm0lflhw-180" vertex="1">
          <mxGeometry y="290" width="200" height="20" as="geometry" />
        </mxCell>
        <mxCell id="PzcVlKoHmZaDmm0lflhw-195" value="showMealsForCourse(courseName: str)" style="text;html=1;strokeColor=none;fillColor=none;align=left;verticalAlign=middle;spacingLeft=4;spacingRight=4;overflow=hidden;rotatable=0;points=[[0,0.5],[1,0.5]];portConstraint=eastwest;whiteSpace=wrap;" parent="PzcVlKoHmZaDmm0lflhw-180" vertex="1">
          <mxGeometry y="310" width="200" height="30" as="geometry" />
        </mxCell>
        <mxCell id="PzcVlKoHmZaDmm0lflhw-196" value="showMeals()" style="text;html=1;strokeColor=none;fillColor=none;align=left;verticalAlign=middle;spacingLeft=4;spacingRight=4;overflow=hidden;rotatable=0;points=[[0,0.5],[1,0.5]];portConstraint=eastwest;whiteSpace=wrap;" parent="PzcVlKoHmZaDmm0lflhw-180" vertex="1">
          <mxGeometry y="340" width="200" height="20" as="geometry" />
        </mxCell>
        <mxCell id="PzcVlKoHmZaDmm0lflhw-197" value="insertMeal(courseName: str, mealName: str, mealPrice: float): int" style="text;html=1;strokeColor=none;fillColor=none;align=left;verticalAlign=middle;spacingLeft=4;spacingRight=4;overflow=hidden;rotatable=0;points=[[0,0.5],[1,0.5]];portConstraint=eastwest;whiteSpace=wrap;" parent="PzcVlKoHmZaDmm0lflhw-180" vertex="1">
          <mxGeometry y="360" width="200" height="50" as="geometry" />
        </mxCell>
        <mxCell id="PzcVlKoHmZaDmm0lflhw-198" value="deleteMeal(courseName: str, mealName: str): int" style="text;html=1;strokeColor=none;fillColor=none;align=left;verticalAlign=middle;spacingLeft=4;spacingRight=4;overflow=hidden;rotatable=0;points=[[0,0.5],[1,0.5]];portConstraint=eastwest;whiteSpace=wrap;" parent="PzcVlKoHmZaDmm0lflhw-180" vertex="1">
          <mxGeometry y="410" width="200" height="30" as="geometry" />
        </mxCell>
        <mxCell id="PzcVlKoHmZaDmm0lflhw-223" style="edgeStyle=orthogonalEdgeStyle;rounded=0;orthogonalLoop=1;jettySize=auto;html=1;entryX=0.795;entryY=0.904;entryDx=0;entryDy=0;entryPerimeter=0;" parent="1" source="PzcVlKoHmZaDmm0lflhw-89" target="PzcVlKoHmZaDmm0lflhw-76" edge="1">
          <mxGeometry relative="1" as="geometry">
            <Array as="points">
              <mxPoint x="401" y="-115" />
            </Array>
          </mxGeometry>
        </mxCell>
        <mxCell id="PzcVlKoHmZaDmm0lflhw-224" style="edgeStyle=orthogonalEdgeStyle;rounded=0;orthogonalLoop=1;jettySize=auto;html=1;entryX=-0.025;entryY=-0.374;entryDx=0;entryDy=0;entryPerimeter=0;" parent="1" source="PzcVlKoHmZaDmm0lflhw-180" target="PzcVlKoHmZaDmm0lflhw-98" edge="1">
          <mxGeometry relative="1" as="geometry" />
        </mxCell>
        <mxCell id="PzcVlKoHmZaDmm0lflhw-225" style="edgeStyle=orthogonalEdgeStyle;rounded=0;orthogonalLoop=1;jettySize=auto;html=1;entryX=0.62;entryY=1.126;entryDx=0;entryDy=0;entryPerimeter=0;exitX=0.11;exitY=0.002;exitDx=0;exitDy=0;exitPerimeter=0;" parent="1" source="PzcVlKoHmZaDmm0lflhw-180" target="PzcVlKoHmZaDmm0lflhw-76" edge="1">
          <mxGeometry relative="1" as="geometry">
            <Array as="points">
              <mxPoint x="410" y="111" />
              <mxPoint x="410" y="100" />
              <mxPoint x="377" y="100" />
            </Array>
          </mxGeometry>
        </mxCell>
        <mxCell id="SGoPQsvxU46vvDtd17dG-6" style="rounded=0;orthogonalLoop=1;jettySize=auto;html=1;exitX=0;exitY=0.5;exitDx=0;exitDy=0;entryX=0.5;entryY=0;entryDx=0;entryDy=0;edgeStyle=orthogonalEdgeStyle;elbow=vertical;" edge="1" parent="1" source="620f7zFxNhLUslhdvnTw-34" target="620f7zFxNhLUslhdvnTw-9">
          <mxGeometry relative="1" as="geometry">
            <Array as="points">
              <mxPoint x="620" y="125" />
              <mxPoint x="620" y="630" />
              <mxPoint x="360" y="630" />
              <mxPoint x="360" y="200" />
              <mxPoint x="270" y="200" />
            </Array>
          </mxGeometry>
        </mxCell>
        <mxCell id="SGoPQsvxU46vvDtd17dG-8" style="edgeStyle=orthogonalEdgeStyle;rounded=0;orthogonalLoop=1;jettySize=auto;html=1;entryX=0.25;entryY=0;entryDx=0;entryDy=0;" edge="1" parent="1" source="SGoPQsvxU46vvDtd17dG-7" target="PzcVlKoHmZaDmm0lflhw-44">
          <mxGeometry relative="1" as="geometry">
            <Array as="points">
              <mxPoint x="1010" y="225" />
              <mxPoint x="1010" y="-750" />
              <mxPoint x="-210" y="-750" />
            </Array>
          </mxGeometry>
        </mxCell>
        <mxCell id="SGoPQsvxU46vvDtd17dG-9" style="edgeStyle=orthogonalEdgeStyle;rounded=0;orthogonalLoop=1;jettySize=auto;html=1;entryX=1;entryY=0.5;entryDx=0;entryDy=0;" edge="1" parent="1" source="620f7zFxNhLUslhdvnTw-44" target="PzcVlKoHmZaDmm0lflhw-175">
          <mxGeometry relative="1" as="geometry">
            <mxPoint x="-70" y="810" as="targetPoint" />
            <Array as="points">
              <mxPoint x="940" y="205" />
              <mxPoint x="940" y="770" />
            </Array>
          </mxGeometry>
        </mxCell>
        <mxCell id="SGoPQsvxU46vvDtd17dG-10" style="edgeStyle=orthogonalEdgeStyle;rounded=0;orthogonalLoop=1;jettySize=auto;html=1;entryX=0.75;entryY=0;entryDx=0;entryDy=0;" edge="1" parent="1" source="620f7zFxNhLUslhdvnTw-42" target="PzcVlKoHmZaDmm0lflhw-180">
          <mxGeometry relative="1" as="geometry">
            <mxPoint x="540" y="80" as="targetPoint" />
            <Array as="points">
              <mxPoint x="610" y="185" />
              <mxPoint x="610" y="80" />
              <mxPoint x="540" y="80" />
            </Array>
          </mxGeometry>
        </mxCell>
        <mxCell id="SGoPQsvxU46vvDtd17dG-12" style="edgeStyle=orthogonalEdgeStyle;rounded=0;orthogonalLoop=1;jettySize=auto;html=1;entryX=0.003;entryY=0.128;entryDx=0;entryDy=0;entryPerimeter=0;exitX=0;exitY=0.5;exitDx=0;exitDy=0;" edge="1" parent="1" source="620f7zFxNhLUslhdvnTw-41" target="PzcVlKoHmZaDmm0lflhw-77">
          <mxGeometry relative="1" as="geometry">
            <mxPoint x="990" y="875.2173913043479" as="targetPoint" />
            <Array as="points">
              <mxPoint x="630" y="165" />
              <mxPoint x="630" y="-220" />
              <mxPoint x="440" y="-220" />
              <mxPoint x="440" y="-170" />
              <mxPoint x="100" y="-170" />
              <mxPoint x="100" y="-129" />
            </Array>
          </mxGeometry>
        </mxCell>
        <mxCell id="SGoPQsvxU46vvDtd17dG-13" style="edgeStyle=orthogonalEdgeStyle;rounded=0;orthogonalLoop=1;jettySize=auto;html=1;entryX=0.56;entryY=1.02;entryDx=0;entryDy=0;entryPerimeter=0;" edge="1" parent="1" source="PzcVlKoHmZaDmm0lflhw-25" target="PzcVlKoHmZaDmm0lflhw-159">
          <mxGeometry relative="1" as="geometry" />
        </mxCell>
        <mxCell id="SGoPQsvxU46vvDtd17dG-14" style="edgeStyle=orthogonalEdgeStyle;rounded=0;orthogonalLoop=1;jettySize=auto;html=1;entryX=-0.014;entryY=0.048;entryDx=0;entryDy=0;entryPerimeter=0;exitX=0.001;exitY=0.046;exitDx=0;exitDy=0;exitPerimeter=0;" edge="1" parent="1" source="PzcVlKoHmZaDmm0lflhw-25" target="PzcVlKoHmZaDmm0lflhw-52">
          <mxGeometry relative="1" as="geometry">
            <Array as="points">
              <mxPoint x="-350" y="303" />
              <mxPoint x="-350" y="-685" />
            </Array>
          </mxGeometry>
        </mxCell>
        <mxCell id="SGoPQsvxU46vvDtd17dG-42" style="edgeStyle=orthogonalEdgeStyle;rounded=0;orthogonalLoop=1;jettySize=auto;html=1;entryX=1;entryY=0.5;entryDx=0;entryDy=0;" edge="1" parent="1" source="SGoPQsvxU46vvDtd17dG-15" target="PzcVlKoHmZaDmm0lflhw-81">
          <mxGeometry relative="1" as="geometry">
            <Array as="points">
              <mxPoint x="640" y="-320" />
              <mxPoint x="640" y="60" />
              <mxPoint x="330" y="60" />
              <mxPoint x="330" y="-37" />
            </Array>
          </mxGeometry>
        </mxCell>
        <mxCell id="SGoPQsvxU46vvDtd17dG-15" value="&lt;b&gt;Customer&lt;/b&gt;" style="swimlane;fontStyle=0;align=center;verticalAlign=top;childLayout=stackLayout;horizontal=1;startSize=55;horizontalStack=0;resizeParent=1;resizeParentMax=0;resizeLast=0;collapsible=0;marginBottom=0;html=1;whiteSpace=wrap;" vertex="1" parent="1">
          <mxGeometry x="680" y="-620" width="200" height="580" as="geometry" />
        </mxCell>
        <mxCell id="SGoPQsvxU46vvDtd17dG-16" value="attributes" style="text;html=1;strokeColor=none;fillColor=none;align=center;verticalAlign=middle;spacingLeft=4;spacingRight=4;overflow=hidden;rotatable=0;points=[[0,0.5],[1,0.5]];portConstraint=eastwest;whiteSpace=wrap;" vertex="1" parent="SGoPQsvxU46vvDtd17dG-15">
          <mxGeometry y="55" width="200" height="20" as="geometry" />
        </mxCell>
        <mxCell id="SGoPQsvxU46vvDtd17dG-17" value="customerId: int" style="text;html=1;strokeColor=none;fillColor=none;align=left;verticalAlign=middle;spacingLeft=4;spacingRight=4;overflow=hidden;rotatable=0;points=[[0,0.5],[1,0.5]];portConstraint=eastwest;whiteSpace=wrap;" vertex="1" parent="SGoPQsvxU46vvDtd17dG-15">
          <mxGeometry y="75" width="200" height="20" as="geometry" />
        </mxCell>
        <mxCell id="SGoPQsvxU46vvDtd17dG-18" value="userName: str" style="text;html=1;strokeColor=none;fillColor=none;align=left;verticalAlign=middle;spacingLeft=4;spacingRight=4;overflow=hidden;rotatable=0;points=[[0,0.5],[1,0.5]];portConstraint=eastwest;whiteSpace=wrap;" vertex="1" parent="SGoPQsvxU46vvDtd17dG-15">
          <mxGeometry y="95" width="200" height="20" as="geometry" />
        </mxCell>
        <mxCell id="SGoPQsvxU46vvDtd17dG-19" value="firstName: str" style="text;html=1;strokeColor=none;fillColor=none;align=left;verticalAlign=middle;spacingLeft=4;spacingRight=4;overflow=hidden;rotatable=0;points=[[0,0.5],[1,0.5]];portConstraint=eastwest;whiteSpace=wrap;" vertex="1" parent="SGoPQsvxU46vvDtd17dG-15">
          <mxGeometry y="115" width="200" height="20" as="geometry" />
        </mxCell>
        <mxCell id="SGoPQsvxU46vvDtd17dG-20" value="lastName: str" style="text;html=1;strokeColor=none;fillColor=none;align=left;verticalAlign=middle;spacingLeft=4;spacingRight=4;overflow=hidden;rotatable=0;points=[[0,0.5],[1,0.5]];portConstraint=eastwest;whiteSpace=wrap;" vertex="1" parent="SGoPQsvxU46vvDtd17dG-15">
          <mxGeometry y="135" width="200" height="20" as="geometry" />
        </mxCell>
        <mxCell id="SGoPQsvxU46vvDtd17dG-21" value="orders: list of Order" style="text;html=1;strokeColor=none;fillColor=none;align=left;verticalAlign=middle;spacingLeft=4;spacingRight=4;overflow=hidden;rotatable=0;points=[[0,0.5],[1,0.5]];portConstraint=eastwest;whiteSpace=wrap;" vertex="1" parent="SGoPQsvxU46vvDtd17dG-15">
          <mxGeometry y="155" width="200" height="20" as="geometry" />
        </mxCell>
        <mxCell id="SGoPQsvxU46vvDtd17dG-23" value="" style="line;strokeWidth=1;fillColor=none;align=left;verticalAlign=middle;spacingTop=-1;spacingLeft=3;spacingRight=3;rotatable=0;labelPosition=right;points=[];portConstraint=eastwest;" vertex="1" parent="SGoPQsvxU46vvDtd17dG-15">
          <mxGeometry y="175" width="200" height="8" as="geometry" />
        </mxCell>
        <mxCell id="SGoPQsvxU46vvDtd17dG-24" value="operations" style="text;html=1;strokeColor=none;fillColor=none;align=center;verticalAlign=middle;spacingLeft=4;spacingRight=4;overflow=hidden;rotatable=0;points=[[0,0.5],[1,0.5]];portConstraint=eastwest;whiteSpace=wrap;" vertex="1" parent="SGoPQsvxU46vvDtd17dG-15">
          <mxGeometry y="183" width="200" height="20" as="geometry" />
        </mxCell>
        <mxCell id="SGoPQsvxU46vvDtd17dG-25" value="__init__(userName: str, customerId: int, firstName: str, lastName: str): None" style="text;html=1;strokeColor=none;fillColor=none;align=left;verticalAlign=middle;spacingLeft=4;spacingRight=4;overflow=hidden;rotatable=0;points=[[0,0.5],[1,0.5]];portConstraint=eastwest;whiteSpace=wrap;" vertex="1" parent="SGoPQsvxU46vvDtd17dG-15">
          <mxGeometry y="203" width="200" height="47" as="geometry" />
        </mxCell>
        <mxCell id="SGoPQsvxU46vvDtd17dG-26" value="existsDB(): boolean" style="text;html=1;strokeColor=none;fillColor=none;align=left;verticalAlign=middle;spacingLeft=4;spacingRight=4;overflow=hidden;rotatable=0;points=[[0,0.5],[1,0.5]];portConstraint=eastwest;whiteSpace=wrap;" vertex="1" parent="SGoPQsvxU46vvDtd17dG-15">
          <mxGeometry y="250" width="200" height="20" as="geometry" />
        </mxCell>
        <mxCell id="SGoPQsvxU46vvDtd17dG-27" value="findCustomer(cls, userName: str): Customer" style="text;html=1;strokeColor=none;fillColor=none;align=left;verticalAlign=middle;spacingLeft=4;spacingRight=4;overflow=hidden;rotatable=0;points=[[0,0.5],[1,0.5]];portConstraint=eastwest;whiteSpace=wrap;" vertex="1" parent="SGoPQsvxU46vvDtd17dG-15">
          <mxGeometry y="270" width="200" height="30" as="geometry" />
        </mxCell>
        <mxCell id="SGoPQsvxU46vvDtd17dG-28" value="setCustomer(userName: str, customerId: int): boolean" style="text;html=1;strokeColor=none;fillColor=none;align=left;verticalAlign=middle;spacingLeft=4;spacingRight=4;overflow=hidden;rotatable=0;points=[[0,0.5],[1,0.5]];portConstraint=eastwest;whiteSpace=wrap;" vertex="1" parent="SGoPQsvxU46vvDtd17dG-15">
          <mxGeometry y="300" width="200" height="40" as="geometry" />
        </mxCell>
        <mxCell id="SGoPQsvxU46vvDtd17dG-29" value="save(): None" style="text;html=1;strokeColor=none;fillColor=none;align=left;verticalAlign=middle;spacingLeft=4;spacingRight=4;overflow=hidden;rotatable=0;points=[[0,0.5],[1,0.5]];portConstraint=eastwest;whiteSpace=wrap;" vertex="1" parent="SGoPQsvxU46vvDtd17dG-15">
          <mxGeometry y="340" width="200" height="20" as="geometry" />
        </mxCell>
        <mxCell id="SGoPQsvxU46vvDtd17dG-30" value="getCustomerName(): str" style="text;html=1;strokeColor=none;fillColor=none;align=left;verticalAlign=middle;spacingLeft=4;spacingRight=4;overflow=hidden;rotatable=0;points=[[0,0.5],[1,0.5]];portConstraint=eastwest;whiteSpace=wrap;" vertex="1" parent="SGoPQsvxU46vvDtd17dG-15">
          <mxGeometry y="360" width="200" height="20" as="geometry" />
        </mxCell>
        <mxCell id="SGoPQsvxU46vvDtd17dG-31" value="getFirstName(): str" style="text;html=1;strokeColor=none;fillColor=none;align=left;verticalAlign=middle;spacingLeft=4;spacingRight=4;overflow=hidden;rotatable=0;points=[[0,0.5],[1,0.5]];portConstraint=eastwest;whiteSpace=wrap;" vertex="1" parent="SGoPQsvxU46vvDtd17dG-15">
          <mxGeometry y="380" width="200" height="20" as="geometry" />
        </mxCell>
        <mxCell id="SGoPQsvxU46vvDtd17dG-32" value="getLastName(): str" style="text;html=1;strokeColor=none;fillColor=none;align=left;verticalAlign=middle;spacingLeft=4;spacingRight=4;overflow=hidden;rotatable=0;points=[[0,0.5],[1,0.5]];portConstraint=eastwest;whiteSpace=wrap;" vertex="1" parent="SGoPQsvxU46vvDtd17dG-15">
          <mxGeometry y="400" width="200" height="20" as="geometry" />
        </mxCell>
        <mxCell id="SGoPQsvxU46vvDtd17dG-33" value="getCustomerId(): int" style="text;html=1;strokeColor=none;fillColor=none;align=left;verticalAlign=middle;spacingLeft=4;spacingRight=4;overflow=hidden;rotatable=0;points=[[0,0.5],[1,0.5]];portConstraint=eastwest;whiteSpace=wrap;" vertex="1" parent="SGoPQsvxU46vvDtd17dG-15">
          <mxGeometry y="420" width="200" height="20" as="geometry" />
        </mxCell>
        <mxCell id="SGoPQsvxU46vvDtd17dG-34" value="getUserName(): str" style="text;html=1;strokeColor=none;fillColor=none;align=left;verticalAlign=middle;spacingLeft=4;spacingRight=4;overflow=hidden;rotatable=0;points=[[0,0.5],[1,0.5]];portConstraint=eastwest;whiteSpace=wrap;" vertex="1" parent="SGoPQsvxU46vvDtd17dG-15">
          <mxGeometry y="440" width="200" height="20" as="geometry" />
        </mxCell>
        <mxCell id="SGoPQsvxU46vvDtd17dG-35" value="setCustomerId(customerId: int): None" style="text;html=1;strokeColor=none;fillColor=none;align=left;verticalAlign=middle;spacingLeft=4;spacingRight=4;overflow=hidden;rotatable=0;points=[[0,0.5],[1,0.5]];portConstraint=eastwest;whiteSpace=wrap;" vertex="1" parent="SGoPQsvxU46vvDtd17dG-15">
          <mxGeometry y="460" width="200" height="30" as="geometry" />
        </mxCell>
        <mxCell id="SGoPQsvxU46vvDtd17dG-36" value="setUserName(userName: str): None" style="text;html=1;strokeColor=none;fillColor=none;align=left;verticalAlign=middle;spacingLeft=4;spacingRight=4;overflow=hidden;rotatable=0;points=[[0,0.5],[1,0.5]];portConstraint=eastwest;whiteSpace=wrap;" vertex="1" parent="SGoPQsvxU46vvDtd17dG-15">
          <mxGeometry y="490" width="200" height="30" as="geometry" />
        </mxCell>
        <mxCell id="SGoPQsvxU46vvDtd17dG-37" value="setFirstName(firstName: str): None" style="text;html=1;strokeColor=none;fillColor=none;align=left;verticalAlign=middle;spacingLeft=4;spacingRight=4;overflow=hidden;rotatable=0;points=[[0,0.5],[1,0.5]];portConstraint=eastwest;whiteSpace=wrap;" vertex="1" parent="SGoPQsvxU46vvDtd17dG-15">
          <mxGeometry y="520" width="200" height="20" as="geometry" />
        </mxCell>
        <mxCell id="SGoPQsvxU46vvDtd17dG-38" value="__str__(): str" style="text;html=1;strokeColor=none;fillColor=none;align=left;verticalAlign=middle;spacingLeft=4;spacingRight=4;overflow=hidden;rotatable=0;points=[[0,0.5],[1,0.5]];portConstraint=eastwest;whiteSpace=wrap;" vertex="1" parent="SGoPQsvxU46vvDtd17dG-15">
          <mxGeometry y="540" width="200" height="20" as="geometry" />
        </mxCell>
        <mxCell id="SGoPQsvxU46vvDtd17dG-39" value="display(): None" style="text;html=1;strokeColor=none;fillColor=none;align=left;verticalAlign=middle;spacingLeft=4;spacingRight=4;overflow=hidden;rotatable=0;points=[[0,0.5],[1,0.5]];portConstraint=eastwest;whiteSpace=wrap;" vertex="1" parent="SGoPQsvxU46vvDtd17dG-15">
          <mxGeometry y="560" width="200" height="20" as="geometry" />
        </mxCell>
        <mxCell id="SGoPQsvxU46vvDtd17dG-41" style="edgeStyle=orthogonalEdgeStyle;rounded=0;orthogonalLoop=1;jettySize=auto;html=1;entryX=1.004;entryY=0.03;entryDx=0;entryDy=0;entryPerimeter=0;" edge="1" parent="1" source="620f7zFxNhLUslhdvnTw-40" target="SGoPQsvxU46vvDtd17dG-15">
          <mxGeometry relative="1" as="geometry" />
        </mxCell>
      </root>
    </mxGraphModel>
  </diagram>
  <diagram id="9S1RqvHTKBvjSv_mRbkw" name="Page-2">
    <mxGraphModel dx="1797" dy="1799" grid="1" gridSize="10" guides="1" tooltips="1" connect="1" arrows="1" fold="1" page="1" pageScale="1" pageWidth="827" pageHeight="1169" math="0" shadow="0">
      <root>
        <mxCell id="0" />
        <mxCell id="1" parent="0" />
        <mxCell id="8KcCg42PUJUIKwrfvfek-27" value="VietnameBot" style="html=1;whiteSpace=wrap;" vertex="1" parent="1">
          <mxGeometry x="250" y="100" width="110" height="50" as="geometry" />
        </mxCell>
        <mxCell id="8KcCg42PUJUIKwrfvfek-29" value="Avatar" style="html=1;whiteSpace=wrap;" vertex="1" parent="1">
          <mxGeometry x="250" y="-70" width="110" height="50" as="geometry" />
        </mxCell>
        <mxCell id="8KcCg42PUJUIKwrfvfek-33" value="" style="endArrow=open;html=1;rounded=0;align=center;verticalAlign=top;endFill=0;labelBackgroundColor=none;endSize=6;entryX=0.5;entryY=1;entryDx=0;entryDy=0;" edge="1" source="8KcCg42PUJUIKwrfvfek-32" parent="1" target="8KcCg42PUJUIKwrfvfek-29">
          <mxGeometry relative="1" as="geometry">
            <mxPoint x="280" y="-115" as="targetPoint" />
          </mxGeometry>
        </mxCell>
        <mxCell id="8KcCg42PUJUIKwrfvfek-34" value="say and listen" style="html=1;verticalAlign=bottom;labelBackgroundColor=none;endArrow=open;endFill=0;dashed=1;rounded=0;exitX=0.5;exitY=0;exitDx=0;exitDy=0;" edge="1" parent="1" source="8KcCg42PUJUIKwrfvfek-27" target="8KcCg42PUJUIKwrfvfek-32">
          <mxGeometry width="160" relative="1" as="geometry">
            <mxPoint x="120" y="-107.5" as="sourcePoint" />
            <mxPoint x="230" y="-107" as="targetPoint" />
          </mxGeometry>
        </mxCell>
        <mxCell id="8KcCg42PUJUIKwrfvfek-32" value="" style="ellipse;html=1;" vertex="1" parent="1">
          <mxGeometry x="290" y="10" width="30" height="30" as="geometry" />
        </mxCell>
        <mxCell id="8KcCg42PUJUIKwrfvfek-35" value="Customer" style="html=1;whiteSpace=wrap;" vertex="1" parent="1">
          <mxGeometry x="-110" y="283.6" width="110" height="50" as="geometry" />
        </mxCell>
        <mxCell id="8KcCg42PUJUIKwrfvfek-38" value="Create and&amp;nbsp;&lt;div&gt;&amp;nbsp;retrieve customers&lt;/div&gt;" style="html=1;verticalAlign=bottom;labelBackgroundColor=none;endArrow=open;endFill=0;dashed=1;rounded=0;exitX=0;exitY=0.25;exitDx=0;exitDy=0;" edge="1" parent="1" source="8KcCg42PUJUIKwrfvfek-27" target="8KcCg42PUJUIKwrfvfek-41">
          <mxGeometry x="0.1033" width="160" relative="1" as="geometry">
            <mxPoint x="110" y="360" as="sourcePoint" />
            <mxPoint x="170" y="300" as="targetPoint" />
            <mxPoint as="offset" />
          </mxGeometry>
        </mxCell>
        <mxCell id="8KcCg42PUJUIKwrfvfek-41" value="" style="ellipse;html=1;" vertex="1" parent="1">
          <mxGeometry x="-20" y="170" width="30" height="30" as="geometry" />
        </mxCell>
        <mxCell id="8KcCg42PUJUIKwrfvfek-42" value="" style="endArrow=open;html=1;rounded=0;align=center;verticalAlign=top;endFill=0;labelBackgroundColor=none;endSize=6;entryX=0.697;entryY=0.024;entryDx=0;entryDy=0;entryPerimeter=0;" edge="1" source="8KcCg42PUJUIKwrfvfek-41" parent="1" target="8KcCg42PUJUIKwrfvfek-35">
          <mxGeometry relative="1" as="geometry">
            <mxPoint x="225" y="300" as="targetPoint" />
          </mxGeometry>
        </mxCell>
        <mxCell id="8KcCg42PUJUIKwrfvfek-44" value="Menu" style="html=1;whiteSpace=wrap;" vertex="1" parent="1">
          <mxGeometry x="500" y="350" width="110" height="50" as="geometry" />
        </mxCell>
        <mxCell id="8KcCg42PUJUIKwrfvfek-45" value="get menu" style="html=1;verticalAlign=bottom;labelBackgroundColor=none;endArrow=open;endFill=0;dashed=1;rounded=0;exitX=1;exitY=0.25;exitDx=0;exitDy=0;" edge="1" parent="1" target="8KcCg42PUJUIKwrfvfek-46" source="8KcCg42PUJUIKwrfvfek-27">
          <mxGeometry x="0.1033" width="160" relative="1" as="geometry">
            <mxPoint x="490" y="178" as="sourcePoint" />
            <mxPoint x="777.5" y="407.95000000000005" as="targetPoint" />
            <mxPoint as="offset" />
          </mxGeometry>
        </mxCell>
        <mxCell id="8KcCg42PUJUIKwrfvfek-46" value="" style="ellipse;html=1;" vertex="1" parent="1">
          <mxGeometry x="480" y="200.00000000000003" width="30" height="30" as="geometry" />
        </mxCell>
        <mxCell id="8KcCg42PUJUIKwrfvfek-47" value="" style="endArrow=open;html=1;rounded=0;align=center;verticalAlign=top;endFill=0;labelBackgroundColor=none;endSize=6;entryX=0.5;entryY=0;entryDx=0;entryDy=0;" edge="1" parent="1" source="8KcCg42PUJUIKwrfvfek-46" target="8KcCg42PUJUIKwrfvfek-44">
          <mxGeometry relative="1" as="geometry">
            <mxPoint x="567.5" y="290.95" as="targetPoint" />
          </mxGeometry>
        </mxCell>
        <mxCell id="8KcCg42PUJUIKwrfvfek-48" value="Order" style="html=1;whiteSpace=wrap;" vertex="1" parent="1">
          <mxGeometry x="90" y="323.59999999999997" width="110" height="50" as="geometry" />
        </mxCell>
        <mxCell id="8KcCg42PUJUIKwrfvfek-49" value="Create orders&lt;br&gt;and get orders" style="html=1;verticalAlign=bottom;labelBackgroundColor=none;endArrow=open;endFill=0;dashed=1;rounded=0;exitX=0.25;exitY=1;exitDx=0;exitDy=0;" edge="1" parent="1" target="8KcCg42PUJUIKwrfvfek-50" source="8KcCg42PUJUIKwrfvfek-27">
          <mxGeometry x="0.1033" width="160" relative="1" as="geometry">
            <mxPoint x="136.43999999999983" y="199.99999999999991" as="sourcePoint" />
            <mxPoint x="340" y="423.59999999999997" as="targetPoint" />
            <mxPoint as="offset" />
          </mxGeometry>
        </mxCell>
        <mxCell id="8KcCg42PUJUIKwrfvfek-50" value="" style="ellipse;html=1;" vertex="1" parent="1">
          <mxGeometry x="140" y="199.99999999999997" width="30" height="30" as="geometry" />
        </mxCell>
        <mxCell id="8KcCg42PUJUIKwrfvfek-51" value="" style="endArrow=open;html=1;rounded=0;align=center;verticalAlign=top;endFill=0;labelBackgroundColor=none;endSize=6;entryX=0.423;entryY=-0.016;entryDx=0;entryDy=0;entryPerimeter=0;" edge="1" parent="1" source="8KcCg42PUJUIKwrfvfek-50" target="8KcCg42PUJUIKwrfvfek-48">
          <mxGeometry relative="1" as="geometry">
            <mxPoint x="130" y="306.59999999999997" as="targetPoint" />
          </mxGeometry>
        </mxCell>
        <mxCell id="8KcCg42PUJUIKwrfvfek-52" value="Basket" style="html=1;whiteSpace=wrap;" vertex="1" parent="1">
          <mxGeometry x="290" y="270" width="110" height="50" as="geometry" />
        </mxCell>
        <mxCell id="8KcCg42PUJUIKwrfvfek-56" value="get basket from&lt;div&gt;database&lt;/div&gt;" style="html=1;verticalAlign=bottom;labelBackgroundColor=none;endArrow=open;endFill=0;dashed=1;rounded=0;exitX=0.75;exitY=1;exitDx=0;exitDy=0;entryX=0.5;entryY=0;entryDx=0;entryDy=0;" edge="1" parent="1" target="8KcCg42PUJUIKwrfvfek-52" source="8KcCg42PUJUIKwrfvfek-27">
          <mxGeometry x="0.4908" y="-10" width="160" relative="1" as="geometry">
            <mxPoint x="166.38" y="300.00000000000017" as="sourcePoint" />
            <mxPoint x="225.21633455469248" y="419.7233462188597" as="targetPoint" />
            <mxPoint as="offset" />
            <Array as="points">
              <mxPoint x="370" y="220" />
            </Array>
          </mxGeometry>
        </mxCell>
        <mxCell id="8KcCg42PUJUIKwrfvfek-59" value="Database&amp;nbsp;" style="html=1;whiteSpace=wrap;" vertex="1" parent="1">
          <mxGeometry x="130" y="660" width="110" height="50" as="geometry" />
        </mxCell>
        <mxCell id="8KcCg42PUJUIKwrfvfek-63" value="" style="endArrow=open;html=1;rounded=0;align=center;verticalAlign=top;endFill=0;labelBackgroundColor=none;endSize=6;entryX=-0.026;entryY=0.414;entryDx=0;entryDy=0;entryPerimeter=0;" edge="1" parent="1" source="8KcCg42PUJUIKwrfvfek-65" target="8KcCg42PUJUIKwrfvfek-59">
          <mxGeometry relative="1" as="geometry">
            <mxPoint x="-255" y="690" as="targetPoint" />
          </mxGeometry>
        </mxCell>
        <mxCell id="8KcCg42PUJUIKwrfvfek-64" value="Storing and retrieval of&amp;nbsp;&lt;div&gt;customer data&amp;nbsp;&lt;/div&gt;" style="html=1;verticalAlign=bottom;labelBackgroundColor=none;endArrow=open;endFill=0;dashed=1;rounded=0;exitX=0.5;exitY=1;exitDx=0;exitDy=0;" edge="1" parent="1" target="8KcCg42PUJUIKwrfvfek-65" source="8KcCg42PUJUIKwrfvfek-35">
          <mxGeometry x="0.3333" width="160" relative="1" as="geometry">
            <mxPoint x="-255" y="460" as="sourcePoint" />
            <mxPoint x="-330" y="363" as="targetPoint" />
            <mxPoint as="offset" />
          </mxGeometry>
        </mxCell>
        <mxCell id="8KcCg42PUJUIKwrfvfek-65" value="" style="ellipse;html=1;" vertex="1" parent="1">
          <mxGeometry x="10" y="530" width="30" height="30" as="geometry" />
        </mxCell>
        <mxCell id="8KcCg42PUJUIKwrfvfek-71" value="Create orders&lt;br&gt;and get orders" style="html=1;verticalAlign=bottom;labelBackgroundColor=none;endArrow=open;endFill=0;dashed=1;rounded=0;exitX=0.75;exitY=1;exitDx=0;exitDy=0;" edge="1" parent="1" target="8KcCg42PUJUIKwrfvfek-72" source="8KcCg42PUJUIKwrfvfek-44">
          <mxGeometry x="0.3844" y="-4" width="160" relative="1" as="geometry">
            <mxPoint x="1017.4999999999998" y="520.9499999999999" as="sourcePoint" />
            <mxPoint x="1221.06" y="744.55" as="targetPoint" />
            <mxPoint as="offset" />
          </mxGeometry>
        </mxCell>
        <mxCell id="8KcCg42PUJUIKwrfvfek-72" value="" style="ellipse;html=1;" vertex="1" parent="1">
          <mxGeometry x="500" y="499.99999999999994" width="30" height="30" as="geometry" />
        </mxCell>
        <mxCell id="8KcCg42PUJUIKwrfvfek-73" value="" style="endArrow=open;html=1;rounded=0;align=center;verticalAlign=top;endFill=0;labelBackgroundColor=none;endSize=6;entryX=1;entryY=0.5;entryDx=0;entryDy=0;" edge="1" parent="1" source="8KcCg42PUJUIKwrfvfek-72" target="8KcCg42PUJUIKwrfvfek-74">
          <mxGeometry relative="1" as="geometry">
            <mxPoint x="518.4899999999998" y="559.2000000000003" as="targetPoint" />
            <Array as="points">
              <mxPoint x="440" y="560" />
            </Array>
          </mxGeometry>
        </mxCell>
        <mxCell id="8KcCg42PUJUIKwrfvfek-74" value="Meal" style="html=1;whiteSpace=wrap;" vertex="1" parent="1">
          <mxGeometry x="210" y="530" width="110" height="50" as="geometry" />
        </mxCell>
        <mxCell id="8KcCg42PUJUIKwrfvfek-75" value="Retrieve meal from database" style="html=1;verticalAlign=bottom;labelBackgroundColor=none;endArrow=open;endFill=0;dashed=1;rounded=0;exitX=0.5;exitY=1;exitDx=0;exitDy=0;" edge="1" parent="1" target="8KcCg42PUJUIKwrfvfek-76" source="8KcCg42PUJUIKwrfvfek-74">
          <mxGeometry x="0.3844" y="-4" width="160" relative="1" as="geometry">
            <mxPoint x="498" y="560" as="sourcePoint" />
            <mxPoint x="973.56" y="859.5999999999999" as="targetPoint" />
            <mxPoint as="offset" />
          </mxGeometry>
        </mxCell>
        <mxCell id="8KcCg42PUJUIKwrfvfek-76" value="" style="ellipse;html=1;" vertex="1" parent="1">
          <mxGeometry x="270" y="619.9999999999999" width="30" height="30" as="geometry" />
        </mxCell>
        <mxCell id="8KcCg42PUJUIKwrfvfek-77" value="" style="endArrow=open;html=1;rounded=0;align=center;verticalAlign=top;endFill=0;labelBackgroundColor=none;endSize=6;entryX=0.5;entryY=0;entryDx=0;entryDy=0;" edge="1" parent="1" source="8KcCg42PUJUIKwrfvfek-76" target="8KcCg42PUJUIKwrfvfek-59">
          <mxGeometry relative="1" as="geometry">
            <mxPoint x="530" y="706" as="targetPoint" />
          </mxGeometry>
        </mxCell>
        <mxCell id="8KcCg42PUJUIKwrfvfek-79" value="Retrive meals" style="html=1;verticalAlign=bottom;labelBackgroundColor=none;endArrow=open;endFill=0;dashed=1;rounded=0;exitX=0.33;exitY=0.955;exitDx=0;exitDy=0;exitPerimeter=0;" edge="1" parent="1" target="8KcCg42PUJUIKwrfvfek-80" source="8KcCg42PUJUIKwrfvfek-48">
          <mxGeometry x="0.3844" y="-4" width="160" relative="1" as="geometry">
            <mxPoint x="195" y="444" as="sourcePoint" />
            <mxPoint x="677.56" y="779.5999999999999" as="targetPoint" />
            <mxPoint as="offset" />
          </mxGeometry>
        </mxCell>
        <mxCell id="8KcCg42PUJUIKwrfvfek-80" value="" style="ellipse;html=1;" vertex="1" parent="1">
          <mxGeometry x="100" y="459.9999999999999" width="30" height="30" as="geometry" />
        </mxCell>
        <mxCell id="8KcCg42PUJUIKwrfvfek-81" value="" style="endArrow=open;html=1;rounded=0;align=center;verticalAlign=top;endFill=0;labelBackgroundColor=none;endSize=6;entryX=0;entryY=0.5;entryDx=0;entryDy=0;" edge="1" parent="1" source="8KcCg42PUJUIKwrfvfek-80" target="8KcCg42PUJUIKwrfvfek-74">
          <mxGeometry relative="1" as="geometry">
            <mxPoint x="160" y="575" as="targetPoint" />
            <Array as="points">
              <mxPoint x="130" y="530" />
            </Array>
          </mxGeometry>
        </mxCell>
        <mxCell id="8KcCg42PUJUIKwrfvfek-84" value="Obtain customerId" style="html=1;verticalAlign=bottom;labelBackgroundColor=none;endArrow=open;endFill=0;dashed=1;rounded=0;exitX=0;exitY=0.5;exitDx=0;exitDy=0;" edge="1" parent="1" target="8KcCg42PUJUIKwrfvfek-85" source="8KcCg42PUJUIKwrfvfek-48">
          <mxGeometry x="-0.1144" y="3" width="160" relative="1" as="geometry">
            <mxPoint x="105" y="343.6" as="sourcePoint" />
            <mxPoint x="587.56" y="679.1999999999999" as="targetPoint" />
            <mxPoint as="offset" />
          </mxGeometry>
        </mxCell>
        <mxCell id="8KcCg42PUJUIKwrfvfek-85" value="" style="ellipse;html=1;" vertex="1" parent="1">
          <mxGeometry x="70" y="219.9999999999999" width="30" height="30" as="geometry" />
        </mxCell>
        <mxCell id="8KcCg42PUJUIKwrfvfek-86" value="" style="endArrow=open;html=1;rounded=0;align=center;verticalAlign=top;endFill=0;labelBackgroundColor=none;endSize=6;entryX=1;entryY=0.5;entryDx=0;entryDy=0;" edge="1" parent="1" source="8KcCg42PUJUIKwrfvfek-85" target="8KcCg42PUJUIKwrfvfek-35">
          <mxGeometry relative="1" as="geometry">
            <mxPoint x="160" y="474.6" as="targetPoint" />
            <Array as="points">
              <mxPoint x="30" y="260" />
            </Array>
          </mxGeometry>
        </mxCell>
        <mxCell id="8KcCg42PUJUIKwrfvfek-93" value="Retrieve Order" style="html=1;verticalAlign=bottom;labelBackgroundColor=none;endArrow=open;endFill=0;dashed=1;rounded=0;exitX=0;exitY=0;exitDx=0;exitDy=0;" edge="1" parent="1" target="8KcCg42PUJUIKwrfvfek-94" source="8KcCg42PUJUIKwrfvfek-52">
          <mxGeometry x="0.3844" y="-4" width="160" relative="1" as="geometry">
            <mxPoint x="335" y="373.6" as="sourcePoint" />
            <mxPoint x="817.56" y="709.1999999999999" as="targetPoint" />
            <mxPoint as="offset" />
          </mxGeometry>
        </mxCell>
        <mxCell id="8KcCg42PUJUIKwrfvfek-94" value="" style="ellipse;html=1;" vertex="1" parent="1">
          <mxGeometry x="200" y="269.9999999999999" width="30" height="30" as="geometry" />
        </mxCell>
        <mxCell id="8KcCg42PUJUIKwrfvfek-95" value="" style="endArrow=open;html=1;rounded=0;align=center;verticalAlign=top;endFill=0;labelBackgroundColor=none;endSize=6;entryX=0.75;entryY=0;entryDx=0;entryDy=0;" edge="1" parent="1" source="8KcCg42PUJUIKwrfvfek-94" target="8KcCg42PUJUIKwrfvfek-48">
          <mxGeometry relative="1" as="geometry">
            <mxPoint x="390" y="504.6" as="targetPoint" />
            <Array as="points" />
          </mxGeometry>
        </mxCell>
        <mxCell id="8KcCg42PUJUIKwrfvfek-97" value="OrderItem" style="html=1;whiteSpace=wrap;" vertex="1" parent="1">
          <mxGeometry x="270" y="400" width="110" height="50" as="geometry" />
        </mxCell>
        <mxCell id="8KcCg42PUJUIKwrfvfek-104" value="" style="html=1;verticalAlign=bottom;labelBackgroundColor=none;endArrow=open;endFill=0;dashed=1;rounded=0;exitX=0.75;exitY=1;exitDx=0;exitDy=0;" edge="1" parent="1" target="8KcCg42PUJUIKwrfvfek-105" source="8KcCg42PUJUIKwrfvfek-97">
          <mxGeometry x="0.3844" y="-4" width="160" relative="1" as="geometry">
            <mxPoint x="400" y="506" as="sourcePoint" />
            <mxPoint x="927.56" y="945.1999999999999" as="targetPoint" />
            <mxPoint as="offset" />
          </mxGeometry>
        </mxCell>
        <mxCell id="8KcCg42PUJUIKwrfvfek-105" value="" style="ellipse;html=1;" vertex="1" parent="1">
          <mxGeometry x="340" y="489.9999999999999" width="30" height="30" as="geometry" />
        </mxCell>
        <mxCell id="8KcCg42PUJUIKwrfvfek-106" value="" style="endArrow=open;html=1;rounded=0;align=center;verticalAlign=top;endFill=0;labelBackgroundColor=none;endSize=6;entryX=1;entryY=0;entryDx=0;entryDy=0;" edge="1" parent="1" source="8KcCg42PUJUIKwrfvfek-105" target="8KcCg42PUJUIKwrfvfek-74">
          <mxGeometry relative="1" as="geometry">
            <mxPoint x="283" y="560" as="targetPoint" />
            <Array as="points" />
          </mxGeometry>
        </mxCell>
        <mxCell id="8KcCg42PUJUIKwrfvfek-111" value="" style="html=1;verticalAlign=bottom;labelBackgroundColor=none;endArrow=open;endFill=0;dashed=1;rounded=0;exitX=0;exitY=0.5;exitDx=0;exitDy=0;" edge="1" parent="1" target="8KcCg42PUJUIKwrfvfek-112" source="8KcCg42PUJUIKwrfvfek-97">
          <mxGeometry x="0.3844" y="-4" width="160" relative="1" as="geometry">
            <mxPoint x="213" y="370" as="sourcePoint" />
            <mxPoint x="787.56" y="865.1999999999999" as="targetPoint" />
            <mxPoint as="offset" />
          </mxGeometry>
        </mxCell>
        <mxCell id="8KcCg42PUJUIKwrfvfek-112" value="" style="ellipse;html=1;" vertex="1" parent="1">
          <mxGeometry x="200" y="409.9999999999999" width="30" height="30" as="geometry" />
        </mxCell>
        <mxCell id="8KcCg42PUJUIKwrfvfek-113" value="" style="endArrow=open;html=1;rounded=0;align=center;verticalAlign=top;endFill=0;labelBackgroundColor=none;endSize=6;entryX=0.888;entryY=0.955;entryDx=0;entryDy=0;entryPerimeter=0;" edge="1" parent="1" source="8KcCg42PUJUIKwrfvfek-112" target="8KcCg42PUJUIKwrfvfek-48">
          <mxGeometry relative="1" as="geometry">
            <mxPoint x="170" y="380" as="targetPoint" />
            <Array as="points" />
          </mxGeometry>
        </mxCell>
      </root>
    </mxGraphModel>
  </diagram>
</mxfile>
